<?xml version="1.0" standalone="no"?>
<!DOCTYPE svg PUBLIC "-//W3C//DTD SVG 20010904//EN"
 "http://www.w3.org/TR/2001/REC-SVG-20010904/DTD/svg10.dtd">
<svg version="1.0" xmlns="http://www.w3.org/2000/svg"
 width="318.000000pt" height="159.000000pt" viewBox="0 0 318.000000 159.000000"
 preserveAspectRatio="xMidYMid meet">
<metadata>
Created by potrace 1.10, written by Peter Selinger 2001-2011
</metadata>
<g transform="translate(0.000000,159.000000) scale(0.050000,-0.050000)"
fill="#ff9900" stroke="none">
<path d="M832 2286 c-25 -166 -94 -613 -142 -910 -27 -172 -50 -326 -50 -342
0 -28 556 -354 602 -354 16 0 584 306 610 328 13 12 -169 1001 -185 1006 -30
10 -217 -189 -217 -231 0 -21 20 -35 56 -39 70 -8 83 -40 123 -283 61 -369 60
-371 -214 -502 l-174 -84 -176 82 c-96 45 -214 91 -261 103 l-86 22 59 74 c33
41 192 204 353 364 l293 290 -76 156 c-87 179 -116 188 -178 56 l-42 -88 -111
208 c-123 230 -166 264 -184 144z m246 -398 c5 -4 -49 -120 -120 -257 -150
-291 -157 -290 -87 11 62 271 117 337 207 246z m190 -63 c13 -44 5 -99 -17
-119 -10 -9 -11 -5 -3 9 8 14 5 25 -6 25 -11 0 -15 15 -8 33 8 22 5 29 -10 20
-14 -9 -19 0 -14 26 4 23 -1 41 -11 41 -11 0 -19 9 -19 21 0 33 76 -15 88 -56z"/>
<path d="M2180 1519 l0 -382 45 7 c42 6 45 17 51 166 l5 161 150 -8 149 -7 0
52 c0 51 -2 52 -150 52 l-150 0 0 120 0 120 167 0 c160 0 166 2 163 45 -3 43
-11 45 -217 51 l-213 5 0 -382z"/>
<path d="M2669 1858 c-27 -85 92 -131 124 -48 15 39 -27 90 -74 90 -20 0 -42
-19 -50 -42z"/>
<path d="M3760 1530 c0 -357 1 -370 40 -370 23 0 40 13 40 31 0 27 9 25 53
-10 202 -159 471 146 329 373 -75 120 -252 161 -322 75 -47 -55 -57 -29 -46
121 l12 150 -53 0 -53 0 0 -370z m354 7 c55 -52 63 -183 16 -251 -68 -97 -227
-69 -272 49 -65 171 127 323 256 202z"/>
<path d="M3080 1666 c-16 -6 -46 -25 -65 -42 -32 -27 -35 -27 -35 3 0 22 -17
33 -50 33 l-50 0 0 -250 c0 -138 8 -250 18 -250 10 0 33 -5 50 -12 28 -11 32
12 32 168 0 193 38 264 142 264 51 0 88 72 46 88 -35 14 -46 13 -88 -2z"/>
<path d="M3348 1661 c-262 -106 -179 -521 105 -521 95 0 227 91 199 137 -22
35 -67 28 -112 -17 -57 -57 -133 -50 -202 18 -102 103 -84 117 142 106 l200
-9 0 57 c0 162 -184 289 -332 229z m204 -132 c45 -67 36 -72 -132 -65 l-144 6
44 55 c60 76 184 79 232 4z"/>
<path d="M4450 1652 c-58 -25 -124 -86 -108 -100 31 -27 96 -29 118 -2 35 42
146 38 187 -7 58 -64 41 -81 -72 -70 -180 17 -293 -93 -236 -231 43 -103 214
-138 297 -61 35 32 44 34 44 10 0 -20 19 -31 53 -31 l52 0 -10 187 c-16 290
-125 392 -325 305z m223 -282 c15 -40 -41 -123 -94 -140 -109 -35 -197 55
-128 131 44 49 204 55 222 9z"/>
<path d="M4947 1652 c-178 -80 -121 -241 99 -283 90 -17 129 -71 83 -118 -45
-44 -123 -38 -176 14 -25 25 -60 42 -79 39 -106 -21 46 -164 175 -164 251 0
263 240 16 312 -109 32 -148 73 -108 113 33 33 138 26 179 -12 30 -27 43 -28
71 -7 92 67 -139 161 -260 106z"/>
<path d="M5426 1641 c-167 -102 -168 -382 -2 -474 101 -56 268 -23 325 65 44
67 -28 87 -102 29 -91 -71 -234 -21 -251 88 -6 37 7 39 194 40 l200 1 -7 60
c-22 189 -202 285 -357 191z m217 -94 c72 -65 47 -87 -103 -87 -148 0 -166 14
-100 80 49 49 153 52 203 7z"/>
<path d="M2680 1413 c0 -265 2 -274 61 -258 36 9 39 29 39 257 l0 248 -50 0
-50 0 0 -247z"/>
</g>
</svg>
