<?xml version="1.0" standalone="no"?>
<!DOCTYPE svg PUBLIC "-//W3C//DTD SVG 20010904//EN"
 "http://www.w3.org/TR/2001/REC-SVG-20010904/DTD/svg10.dtd">
<svg version="1.0" xmlns="http://www.w3.org/2000/svg"
 width="870.000000pt" height="522.000000pt" viewBox="0 0 870.000000 522.000000"
 preserveAspectRatio="xMidYMid meet">
<metadata>
Created by potrace 1.10, written by Peter Selinger 2001-2011
</metadata>
<g transform="translate(0.000000,522.000000) scale(0.100000,-0.100000)"
fill="#999999" stroke="none">
<path d="M6578 5155 c-10 -13 -18 -27 -18 -32 0 -4 -12 -19 -27 -33 -14 -14
-38 -43 -52 -65 -14 -22 -31 -44 -37 -50 -18 -17 -74 -93 -74 -100 0 -4 -6
-13 -14 -19 -7 -6 -62 -76 -122 -156 -59 -80 -118 -156 -131 -170 -13 -14 -23
-28 -23 -32 0 -3 -6 -13 -13 -20 -7 -7 -41 -51 -76 -98 -35 -47 -69 -89 -75
-95 -7 -5 -54 -66 -106 -135 -51 -69 -101 -132 -110 -141 -9 -9 -39 -47 -65
-83 -27 -36 -52 -66 -57 -66 -4 0 -8 -4 -8 -10 0 -9 -188 -270 -225 -312 -8
-10 -15 -22 -15 -27 0 -5 -7 -11 -15 -15 -8 -3 -15 -11 -15 -18 0 -8 -13 -28
-30 -46 -16 -18 -30 -35 -30 -38 0 -5 -200 -277 -237 -322 -16 -19 -31 -41
-34 -50 -4 -10 -18 -30 -33 -45 -14 -15 -26 -30 -26 -33 0 -3 -20 -32 -45 -64
-25 -32 -45 -63 -45 -67 0 -5 -11 -20 -24 -32 l-24 -22 -38 56 c-22 32 -65 93
-96 136 -32 44 -58 81 -58 84 0 3 -7 13 -15 22 -22 25 -135 182 -135 187 0 3
-13 20 -30 38 -16 18 -30 36 -30 41 0 4 -34 53 -75 107 -41 54 -75 103 -75
107 0 5 -13 23 -29 40 -16 18 -31 36 -33 41 -3 8 -57 85 -123 174 l-30 41 -85
1 c-56 1 -85 -3 -85 -10 0 -6 26 -40 58 -75 31 -35 57 -68 57 -74 0 -6 13 -25
30 -43 17 -18 30 -36 30 -38 0 -3 20 -32 45 -64 25 -32 45 -62 45 -67 0 -5 14
-23 30 -41 17 -18 30 -35 30 -38 0 -3 27 -41 60 -84 33 -43 60 -81 60 -84 0
-3 7 -14 15 -23 22 -25 135 -182 135 -187 0 -3 14 -20 30 -38 17 -18 30 -36
30 -41 0 -5 20 -35 45 -67 25 -32 45 -63 45 -69 0 -6 4 -11 8 -11 10 0 102
-124 102 -137 0 -5 -14 -22 -30 -37 -17 -15 -44 -49 -61 -76 -17 -28 -35 -50
-40 -50 -5 0 -9 -5 -9 -10 0 -14 -72 -110 -82 -110 -4 0 -8 -5 -8 -11 0 -5
-26 -45 -58 -87 -32 -42 -61 -85 -65 -94 -3 -10 -11 -18 -17 -18 -5 0 -10 -6
-10 -14 0 -8 -3 -16 -7 -18 -5 -1 -21 -22 -37 -45 -16 -24 -33 -43 -37 -43 -5
0 -9 -5 -9 -11 0 -5 -27 -46 -60 -89 -33 -43 -60 -82 -60 -87 0 -4 -14 -21
-30 -37 -17 -16 -30 -34 -30 -40 0 -7 -13 -26 -30 -44 -16 -18 -30 -35 -30
-38 0 -8 -151 -207 -184 -242 -40 -43 -26 -52 73 -45 72 5 111 21 111 45 0 5
26 44 58 86 32 42 61 85 65 95 3 9 11 17 17 17 5 0 10 6 10 14 0 8 7 16 15 20
8 3 15 11 15 18 0 8 14 28 30 46 17 18 30 35 30 38 0 3 26 40 58 82 32 42 61
85 65 95 3 9 11 17 17 17 5 0 10 6 10 14 0 8 7 16 15 20 8 3 15 11 15 18 0 8
14 28 30 46 17 18 30 35 30 38 0 3 26 40 58 82 32 42 61 85 65 95 3 9 11 17
17 17 5 0 10 6 10 14 0 8 7 16 15 20 8 3 15 11 15 18 0 8 12 27 28 44 15 16
35 46 45 65 11 18 29 47 41 62 l23 29 38 -59 c21 -32 58 -84 82 -115 24 -31
43 -61 43 -67 0 -6 4 -11 9 -11 5 0 20 -17 32 -37 13 -21 42 -64 66 -95 24
-31 43 -61 43 -67 0 -6 4 -11 8 -11 10 0 82 -96 82 -109 0 -5 7 -11 15 -15 8
-3 15 -10 15 -16 0 -6 27 -47 60 -90 33 -43 60 -81 60 -84 0 -3 14 -20 30 -38
17 -18 30 -38 30 -46 0 -7 7 -15 15 -18 8 -4 15 -13 15 -20 0 -8 7 -17 15 -20
8 -4 15 -10 15 -16 0 -5 27 -45 60 -88 33 -43 60 -83 60 -88 0 -24 40 -40 118
-45 103 -8 110 2 47 68 -25 27 -45 54 -45 62 0 7 -7 16 -15 19 -8 4 -15 12
-15 20 0 8 -4 14 -9 14 -5 0 -20 17 -32 38 -13 20 -55 80 -94 132 -40 52 -74
100 -76 107 -2 6 -16 26 -32 45 -34 41 -147 197 -147 202 0 3 -13 20 -30 38
-16 18 -30 36 -30 41 0 6 -136 194 -170 234 -5 7 -10 17 -10 23 0 5 -4 10 -9
10 -5 0 -23 22 -39 48 -16 26 -46 66 -66 87 -44 49 -45 75 -6 125 17 21 30 42
30 48 0 5 7 12 15 16 8 3 15 12 15 21 0 8 5 15 10 15 6 0 15 10 20 23 6 12 39
63 75 112 36 50 69 100 75 113 5 12 14 22 20 22 5 0 10 5 10 11 0 6 14 28 30
49 17 21 30 42 30 48 0 5 7 12 15 16 8 3 15 10 15 17 0 6 14 28 30 49 17 21
30 41 30 45 0 3 20 33 45 65 25 32 45 63 45 68 0 5 7 12 15 16 8 3 15 10 15
16 0 7 19 37 43 68 23 32 47 65 52 74 6 9 37 56 70 103 33 48 65 94 70 103 6
10 16 21 23 25 6 4 12 12 12 18 0 5 21 39 48 74 26 36 67 94 92 130 25 36 52
75 60 85 8 11 35 50 60 86 25 36 65 94 90 129 25 35 52 73 60 85 8 13 35 51
60 85 25 35 52 73 60 85 50 72 142 197 155 211 8 9 15 19 15 23 0 4 5 12 10
19 34 41 110 148 110 155 0 6 7 12 15 16 8 3 15 12 15 21 0 8 4 15 9 15 11 0
41 56 41 77 0 21 -23 15 -42 -12z"/>
<path d="M2057 3828 c-9 -5 -11 -146 -7 -585 3 -318 3 -861 0 -1206 -3 -346
-3 -631 -1 -633 2 -2 377 -4 832 -4 l828 0 -2 61 -2 61 -758 1 -758 2 -2 538
-2 537 698 0 c384 -1 702 2 707 5 5 3 8 31 7 62 l-2 56 -703 1 -703 1 0 490 0
490 741 2 c407 1 745 5 749 8 11 6 11 104 0 110 -12 8 -1608 11 -1622 3z"/>
<path d="M5850 3832 c-5 -2 -10 -30 -10 -63 l0 -59 435 0 435 0 -2 -1155 c-2
-764 0 -1156 7 -1158 6 -1 41 -1 79 1 l69 4 -7 61 c-3 34 -6 552 -6 1152 l-1
1090 432 5 433 5 0 53 c1 30 -2 56 -6 58 -8 5 -1843 11 -1858 6z"/>
<path d="M5 3820 c-4 -6 -2 -17 5 -25 15 -18 15 -2328 -1 -2356 -16 -31 -2
-39 69 -39 l67 0 -1 1058 c-1 581 -5 1087 -8 1124 -4 44 -2 69 5 74 14 8 51
-29 76 -76 10 -19 54 -88 98 -153 44 -65 87 -129 95 -142 32 -50 75 -110 83
-113 4 -2 7 -8 7 -14 0 -6 14 -27 30 -48 16 -21 30 -43 30 -49 0 -6 5 -11 10
-11 6 0 15 -10 20 -22 11 -25 28 -53 48 -77 26 -32 102 -141 102 -147 0 -3 14
-23 30 -44 17 -21 30 -41 30 -45 0 -3 20 -33 45 -65 25 -32 45 -63 45 -69 0
-5 6 -14 13 -18 12 -8 31 -35 44 -62 3 -8 13 -22 20 -30 23 -26 103 -141 103
-147 0 -3 14 -23 30 -44 17 -21 30 -41 30 -45 0 -3 20 -33 45 -65 25 -32 45
-62 45 -65 0 -4 14 -24 30 -45 17 -21 30 -43 30 -49 0 -6 3 -11 8 -11 6 0 128
-173 167 -238 6 -9 29 -42 53 -74 23 -31 42 -60 42 -63 0 -4 14 -24 30 -45 17
-21 30 -42 30 -48 0 -5 7 -12 15 -16 8 -3 15 -10 15 -16 0 -7 20 -38 45 -70
25 -32 45 -62 45 -67 0 -5 13 -22 28 -39 16 -16 45 -55 66 -86 21 -32 41 -58
45 -58 4 0 15 -15 25 -32 11 -18 37 -55 58 -83 41 -52 391 -526 418 -565 13
-19 30 -41 58 -75 4 -5 11 -18 15 -27 3 -10 11 -18 17 -18 5 0 10 -7 10 -15 0
-9 7 -18 15 -21 8 -4 15 -11 15 -16 0 -5 20 -36 45 -68 25 -32 45 -62 45 -67
0 -5 8 -16 18 -25 22 -21 33 -35 60 -78 33 -54 71 -85 84 -72 9 9 6 17 -10 32
-12 12 -22 26 -22 32 0 6 -17 34 -38 62 -21 28 -41 59 -45 68 -3 10 -11 18
-17 18 -5 0 -10 7 -10 15 0 9 -7 18 -15 21 -8 4 -15 12 -15 19 0 8 -6 20 -14
27 -13 14 -62 83 -160 228 -28 41 -53 77 -56 80 -3 3 -23 32 -45 65 -22 33
-42 62 -45 65 -5 4 -163 237 -200 295 -8 13 -55 82 -105 155 -49 72 -94 139
-100 148 -5 9 -22 33 -37 53 -16 20 -28 42 -28 48 0 6 -5 11 -10 11 -6 0 -15
10 -20 23 -15 33 -33 61 -47 70 -7 4 -13 13 -13 19 0 5 -12 27 -27 47 -32 41
-50 69 -60 91 -3 8 -12 19 -20 23 -7 4 -13 13 -13 19 0 5 -13 27 -28 47 -16
20 -37 52 -48 71 -10 19 -24 39 -30 45 -9 9 -254 370 -279 413 -5 9 -22 33
-37 53 -16 20 -28 40 -28 44 0 4 -13 24 -30 45 -16 21 -30 41 -30 45 0 4 -13
24 -30 45 -16 21 -30 41 -30 45 0 4 -14 24 -30 45 -16 21 -30 41 -30 45 0 4
-13 24 -30 45 -16 21 -30 41 -30 45 0 4 -13 24 -30 45 -16 21 -30 41 -30 45 0
4 -13 24 -28 44 -16 20 -32 44 -35 54 -4 9 -10 17 -16 17 -5 0 -11 8 -15 18
-7 22 -21 43 -73 114 -24 31 -43 60 -43 63 0 4 -13 24 -30 45 -16 21 -30 41
-30 45 0 4 -13 24 -30 45 -16 21 -30 43 -30 48 0 6 -6 15 -12 19 -15 9 -33 37
-48 71 -5 12 -14 22 -19 22 -5 0 -12 8 -15 18 -12 32 -37 72 -45 72 -5 0 -11
8 -15 18 -7 21 -28 55 -39 63 -11 8 -34 47 -43 72 -3 9 -10 17 -14 17 -5 0
-19 20 -31 45 l-23 45 -92 0 c-54 0 -96 -4 -99 -10z"/>
<path d="M8402 2101 c-23 -9 -57 -32 -75 -49 -29 -30 -32 -38 -32 -95 0 -60 2
-65 35 -96 19 -17 46 -34 60 -37 14 -3 43 -12 65 -20 23 -8 51 -14 63 -14 13
0 36 -10 52 -22 38 -28 40 -73 6 -105 -20 -19 -35 -23 -94 -23 -70 0 -71 0
-105 41 -30 34 -40 40 -69 37 -50 -5 -49 -35 4 -90 84 -86 241 -92 319 -12 32
33 34 38 33 111 -1 72 -2 77 -30 97 -36 26 -86 46 -144 55 -54 10 -96 31 -117
60 -13 19 -12 25 6 55 38 61 150 61 197 -1 21 -28 31 -34 57 -31 29 3 32 6 30
32 -3 40 -52 87 -111 109 -60 21 -93 20 -150 -2z"/>
<path d="M8093 2098 c-4 -7 -6 -103 -4 -213 l3 -200 -25 -23 c-19 -18 -34 -23
-68 -20 -35 2 -45 8 -59 32 -18 34 -66 52 -88 34 -31 -26 21 -106 87 -134 61
-26 144 -12 187 30 35 34 43 88 45 296 l2 195 -24 6 c-37 11 -47 10 -56 -3z"/>
<path d="M7657 1662 c-20 -22 -22 -63 -5 -80 18 -18 73 -14 91 6 21 23 21 36
1 67 -20 30 -63 33 -87 7z"/>
</g>
</svg>
