<?xml version="1.0" standalone="no"?>
<!DOCTYPE svg PUBLIC "-//W3C//DTD SVG 20010904//EN"
 "http://www.w3.org/TR/2001/REC-SVG-20010904/DTD/svg10.dtd">
<svg version="1.0" xmlns="http://www.w3.org/2000/svg"
 width="300.000000pt" height="114.000000pt" viewBox="0 0 300.000000 114.000000"
 preserveAspectRatio="xMidYMid meet">
<metadata>
Created by potrace 1.10, written by Peter Selinger 2001-2011
</metadata>
<g transform="translate(0.000000,114.000000) scale(0.100000,-0.100000)"
fill="#5fd7ff" stroke="none">
<path d="M282 1030 c0 -19 2 -27 5 -17 2 9 2 25 0 35 -3 9 -5 1 -5 -18z"/>
<path d="M363 986 c-36 -27 -57 -96 -50 -173 3 -38 7 -76 9 -87 2 -14 -9 -23
-50 -37 -131 -45 -191 -131 -146 -208 21 -35 96 -86 157 -107 38 -13 47 -20
41 -33 -3 -9 -9 -48 -11 -87 -9 -119 32 -184 115 -184 37 0 120 40 164 79 20
17 39 31 43 31 4 0 23 -14 43 -31 45 -40 128 -79 167 -79 86 0 128 102 102
253 -7 38 -6 47 7 47 25 0 107 39 147 71 52 41 66 87 42 136 -21 43 -98 99
-159 115 l-42 12 5 91 c9 139 -24 205 -102 205 -41 0 -142 -50 -179 -89 l-29
-30 -40 34 c-82 70 -189 103 -234 71z m122 -50 c28 -13 65 -37 84 -53 l34 -29
-44 -55 c-43 -54 -45 -56 -114 -66 -38 -5 -73 -8 -77 -6 -11 6 -21 128 -13
163 8 37 37 70 63 70 9 0 40 -11 67 -24z m401 3 c16 -18 19 -37 19 -114 0 -51
-3 -96 -6 -99 -3 -3 -37 0 -76 7 -68 12 -71 14 -116 69 l-46 57 48 35 c91 67
145 80 177 45z m-219 -151 c18 -18 33 -35 33 -39 0 -3 -29 -6 -65 -6 -36 0
-65 3 -65 5 0 6 54 70 60 71 2 1 19 -13 37 -31z m33 -87 c33 -1 38 -6 82 -82
l46 -82 -33 -60 c-63 -114 -60 -112 -160 -112 -48 0 -91 2 -95 5 -11 7 -100
152 -100 163 0 4 21 43 46 87 44 77 46 79 87 82 23 2 53 3 67 2 14 -1 41 -2
60 -3z m-220 -7 c0 -3 -9 -18 -20 -34 -11 -15 -25 -40 -31 -56 l-11 -29 -19
49 c-22 54 -19 62 26 69 52 7 55 7 55 1z m389 -10 c14 -4 11 -26 -9 -80 l-11
-27 -29 54 c-16 30 -29 57 -30 61 0 7 46 2 79 -8z m-502 -83 l22 -68 -23 -64
c-13 -35 -28 -65 -34 -67 -17 -5 -114 47 -149 81 -18 17 -33 40 -33 52 0 30
55 79 120 109 30 14 60 25 65 25 6 0 20 -30 32 -68z m618 46 c47 -16 103 -54
121 -82 15 -23 15 -27 -3 -57 -12 -21 -41 -44 -78 -64 -81 -43 -105 -50 -105
-30 0 9 -11 40 -24 70 -24 55 -24 55 -6 94 10 21 22 51 26 66 5 20 11 25 23
21 9 -4 30 -12 46 -18z m-536 -217 c17 -28 31 -53 31 -56 0 -5 -60 3 -87 11
-9 3 -10 12 -2 37 6 18 12 39 15 46 6 19 10 15 43 -38z m421 10 c7 -22 11 -43
7 -46 -6 -7 -88 -26 -93 -22 -4 4 60 107 67 108 3 0 12 -18 19 -40z m-411
-106 c34 -3 61 -10 61 -14 0 -4 18 -28 40 -53 22 -25 40 -48 40 -52 0 -29
-158 -110 -196 -101 -39 10 -58 65 -50 150 7 77 12 90 31 82 8 -3 41 -8 74
-12z m445 -2 c4 -10 7 -48 7 -84 1 -68 -14 -113 -43 -131 -24 -16 -84 6 -151
53 l-57 41 47 57 c43 53 50 58 107 68 85 16 84 16 90 -4z m-204 -12 c-1 -9
-59 -70 -67 -70 -7 0 -63 64 -63 72 0 2 29 3 65 3 36 0 65 -2 65 -5z"/>
<path d="M594 620 c-51 -20 -71 -97 -36 -139 24 -30 72 -42 108 -26 40 17 54
37 56 80 1 31 -5 43 -30 67 -33 28 -60 34 -98 18z m66 -30 c45 -24 45 -86 0
-110 -61 -33 -119 51 -70 100 22 22 42 25 70 10z"/>
<path d="M1320 540 l0 -220 28 0 27 0 -3 90 -4 90 49 0 48 0 55 -90 c51 -83
57 -89 88 -90 l33 0 -61 90 c-63 94 -69 105 -46 97 27 -11 80 36 95 81 12 38
11 48 -4 89 -25 65 -68 82 -202 83 l-103 0 0 -220z m234 149 c36 -28 37 -89 1
-124 -22 -22 -32 -25 -105 -25 l-80 0 0 85 0 85 79 0 c64 0 83 -4 105 -21z
m-192 -181 c-9 -9 -12 -7 -12 12 0 19 3 21 12 12 9 -9 9 -15 0 -24z"/>
<path d="M2765 722 c-2 -3 -1 -25 2 -49 l6 -45 -31 7 c-29 6 -32 4 -32 -19 0
-23 3 -25 31 -19 l31 6 -2 -109 c-2 -154 -3 -152 25 -170 33 -21 95 -12 95 15
0 26 -10 31 -32 18 -36 -22 -48 13 -48 135 l0 108 32 -2 c28 -3 34 1 36 21 4
22 1 24 -32 18 l-36 -6 0 47 c0 41 -3 48 -20 48 -12 0 -23 -2 -25 -4z m35
-107 c0 -8 -4 -15 -9 -15 -13 0 -22 16 -14 24 11 11 23 6 23 -9z"/>
<path d="M1790 634 c-69 -30 -101 -78 -102 -153 -1 -135 128 -210 252 -146 32
17 35 22 20 45 -7 12 -12 12 -29 -4 -26 -23 -98 -31 -130 -14 -28 15 -58 55
-63 81 -3 18 6 19 130 17 l133 -1 -7 38 c-13 74 -55 126 -115 143 -43 13 -47
12 -89 -6z m95 -38 c32 -14 77 -77 64 -90 -9 -9 -213 -8 -216 1 -5 15 41 77
67 90 32 16 43 16 85 -1z"/>
<path d="M2517 635 c-69 -24 -107 -79 -107 -154 0 -115 92 -190 197 -162 22 6
47 19 57 30 15 16 15 19 1 31 -13 10 -18 10 -33 -3 -27 -25 -66 -30 -105 -14
-44 19 -67 61 -67 123 0 39 5 51 34 80 28 28 41 34 77 34 25 0 50 -7 60 -16
20 -18 53 -12 47 8 -6 17 -56 44 -93 51 -16 3 -47 -1 -68 -8z"/>
<path d="M2113 620 c-31 -18 -41 -39 -27 -53 3 -3 20 3 37 14 18 11 50 19 75
19 55 0 82 -26 82 -80 0 -46 -3 -47 -37 -20 -49 38 -136 22 -166 -30 -26 -43
-21 -85 12 -122 26 -29 36 -33 79 -33 37 0 59 6 81 23 30 22 31 22 31 2 0 -13
7 -20 20 -20 19 0 20 7 20 134 l0 134 -31 26 c-40 34 -126 37 -176 6z m135
-150 c26 -16 32 -26 32 -55 0 -28 -5 -37 -30 -50 -37 -19 -90 -19 -118 1 -32
22 -30 76 4 103 33 26 70 27 112 1z"/>
<path d="M2572 480 c0 -19 2 -27 5 -17 2 9 2 25 0 35 -3 9 -5 1 -5 -18z"/>
</g>
</svg>
