<?xml version="1.0" standalone="no"?>
<!DOCTYPE svg PUBLIC "-//W3C//DTD SVG 20010904//EN"
 "http://www.w3.org/TR/2001/REC-SVG-20010904/DTD/svg10.dtd">
<svg version="1.0" xmlns="http://www.w3.org/2000/svg"
 width="1350.000000pt" height="759.000000pt" viewBox="0 0 1350.000000 759.000000"
 preserveAspectRatio="xMidYMid meet">
<metadata>
Created by potrace 1.10, written by Peter Selinger 2001-2011
</metadata>
<g transform="translate(0.000000,759.000000) scale(0.100000,-0.100000)"
fill="#666666" stroke="none">
<path d="M4645 5229 c-4 -5 -17 -14 -28 -19 -12 -6 -49 -26 -82 -45 -33 -19
-67 -38 -75 -42 -8 -4 -44 -24 -79 -46 -35 -21 -74 -43 -85 -48 -12 -5 -34
-18 -51 -29 -16 -11 -39 -24 -50 -30 -11 -6 -29 -16 -40 -23 -11 -7 -39 -23
-62 -36 -39 -22 -50 -39 -129 -195 -92 -184 -99 -197 -114 -223 -6 -10 -13
-25 -16 -33 -3 -8 -10 -22 -15 -30 -5 -8 -12 -22 -15 -30 -3 -8 -10 -22 -15
-30 -5 -8 -12 -22 -15 -30 -3 -8 -9 -22 -14 -30 -5 -8 -25 -49 -45 -90 -20
-41 -40 -82 -45 -90 -34 -61 -230 -457 -230 -465 0 -11 78 -62 128 -83 30 -13
35 -12 65 10 17 14 39 28 47 31 8 4 31 17 50 28 34 20 200 121 230 139 121 74
259 150 273 150 9 0 17 -7 17 -16 0 -9 6 -28 13 -42 18 -35 40 -86 62 -142 10
-25 24 -60 32 -77 7 -18 20 -49 28 -68 8 -19 21 -50 29 -67 7 -18 28 -69 46
-113 18 -44 39 -96 48 -115 35 -79 62 -143 88 -210 40 -105 66 -150 94 -164
19 -9 42 -23 113 -69 31 -20 61 -37 65 -37 5 0 19 11 32 25 13 14 27 25 31 25
5 0 41 19 81 43 40 24 80 46 88 50 8 4 29 16 45 27 17 11 37 23 45 27 18 8
208 118 230 133 8 6 25 14 38 20 26 11 29 43 8 92 -8 18 -22 60 -31 93 -10 33
-23 76 -30 95 -7 19 -18 51 -24 70 -7 19 -16 49 -21 65 -11 39 -29 91 -46 133
-8 18 -14 41 -14 52 0 25 -13 32 -71 36 -156 11 -282 94 -348 230 -31 64 -32
70 -28 168 2 55 10 117 18 136 19 48 78 127 128 172 45 40 46 48 17 128 -25
66 -38 105 -46 135 -5 17 -14 46 -20 65 -24 72 -32 96 -40 125 -10 37 -28 87
-48 137 -12 29 -27 44 -66 63 -28 14 -69 37 -91 50 -46 28 -51 29 -60 14z m81
-65 c51 -24 54 -27 42 -46 -11 -17 -67 -54 -133 -88 -11 -6 -33 -19 -50 -29
-16 -11 -50 -31 -75 -44 -25 -14 -61 -34 -80 -46 -19 -11 -44 -25 -55 -31 -11
-6 -33 -19 -50 -30 -77 -49 -92 -54 -130 -36 -19 9 -37 21 -40 26 -3 6 -15 10
-26 10 -55 0 4 52 136 120 11 6 34 19 50 29 17 11 50 31 75 44 25 14 61 34 80
46 19 11 44 25 55 31 11 6 43 24 70 40 28 16 56 29 63 30 7 0 38 -12 68 -26z
m-584 -358 c50 -27 68 -43 85 -78 12 -23 22 -51 22 -61 1 -10 6 -28 13 -40 6
-12 15 -35 19 -52 4 -16 13 -46 20 -65 6 -19 17 -51 24 -70 7 -19 18 -51 25
-70 6 -19 16 -51 20 -70 4 -19 14 -51 20 -70 7 -19 18 -51 25 -70 7 -19 18
-51 24 -70 7 -19 16 -48 21 -65 5 -16 14 -46 21 -65 6 -19 17 -51 24 -70 7
-19 27 -82 45 -140 18 -58 38 -121 45 -140 28 -80 37 -107 45 -135 11 -39 29
-91 46 -133 8 -18 14 -40 14 -48 0 -9 6 -30 13 -47 8 -18 22 -59 32 -92 9 -33
23 -76 30 -95 7 -19 18 -51 25 -70 20 -57 24 -90 9 -90 -7 0 -38 16 -69 37
-58 37 -65 47 -115 173 -9 25 -24 61 -33 80 -22 49 -43 99 -59 138 -7 17 -19
47 -27 65 -7 17 -21 52 -31 77 -10 25 -24 61 -33 80 -22 49 -43 99 -59 137
-27 67 -45 109 -59 136 -8 16 -14 35 -14 42 0 7 -6 26 -14 42 -14 28 -33 70
-61 138 -89 212 -111 259 -122 262 -6 2 -55 -53 -107 -124 -53 -70 -100 -134
-106 -140 -6 -7 -25 -34 -42 -60 -18 -27 -85 -119 -150 -205 -115 -153 -144
-179 -163 -147 -4 5 -18 15 -32 20 -23 8 -24 13 -18 47 4 20 11 42 16 48 5 6
88 168 184 360 97 192 180 353 185 358 6 6 10 18 10 27 0 9 7 22 15 29 8 7 15
20 15 30 0 10 7 23 15 30 8 7 15 20 15 30 0 10 7 23 15 30 8 7 15 20 15 30 0
10 7 23 15 30 8 7 15 20 15 30 0 10 7 23 15 30 8 7 15 19 15 28 0 13 27 52 36
52 1 0 31 -15 66 -34z"/>
<path d="M6021 4736 c-8 -10 -10 -224 -9 -787 l3 -774 485 0 485 0 3 109 c2
72 -1 113 -9 122 -10 12 -70 14 -352 14 -186 -1 -342 2 -346 5 -11 11 -10 409
1 423 8 9 85 12 323 12 195 0 315 4 317 10 2 5 1 58 -2 117 l-5 108 -309 3
c-193 1 -314 6 -322 13 -19 16 -13 367 6 379 9 6 164 10 351 10 298 0 338 2
343 16 11 30 7 209 -6 222 -19 19 -941 17 -957 -2z"/>
<path d="M5146 4404 c-65 -32 -88 -54 -120 -117 -62 -123 -3 -262 136 -318 55
-23 91 -23 152 -2 88 32 166 137 166 224 0 83 -69 180 -155 218 -62 27 -118
26 -179 -5z m146 -21 c54 -21 96 -51 103 -74 12 -36 -7 -87 -51 -137 -54 -61
-115 -97 -181 -106 -75 -10 -96 2 -118 68 -19 55 -19 57 -1 110 23 66 68 113
133 137 61 22 64 22 115 2z"/>
<path d="M8960 4384 c-75 -25 -113 -46 -157 -88 -46 -43 -50 -41 -55 29 l-3
40 -115 0 -115 0 0 -850 0 -850 100 -3 c55 -2 110 0 123 3 l22 5 0 295 c0 286
1 295 20 295 10 0 23 -6 27 -14 13 -22 94 -72 147 -90 66 -22 200 -21 277 2
81 23 183 94 242 167 94 116 137 255 137 440 0 182 -38 307 -128 427 -38 52
-119 122 -180 156 -87 49 -250 66 -342 36z m208 -248 c124 -64 182 -180 182
-366 0 -189 -56 -306 -174 -367 -41 -21 -63 -25 -136 -25 -78 0 -94 3 -141 28
-69 38 -112 95 -128 171 -16 72 -10 358 8 414 15 50 84 125 134 148 65 30 193
28 255 -3z"/>
<path d="M10205 4383 c-163 -51 -292 -159 -353 -298 -50 -112 -56 -146 -56
-315 0 -141 3 -175 21 -230 40 -122 65 -166 137 -241 105 -108 228 -159 387
-159 170 0 279 47 400 173 50 53 84 113 120 217 20 57 22 85 23 235 1 179 -6
215 -58 323 -41 85 -50 98 -111 157 -66 64 -156 115 -247 140 -70 19 -197 18
-263 -2z m248 -242 c43 -20 100 -74 131 -124 28 -46 56 -166 56 -247 0 -169
-67 -313 -171 -365 -65 -33 -189 -35 -249 -5 -108 55 -162 159 -176 335 -14
179 63 350 183 406 54 25 171 25 226 0z"/>
<path d="M7195 4360 c-3 -5 38 -75 92 -156 54 -80 103 -153 108 -162 6 -10 21
-33 35 -52 14 -19 30 -42 35 -51 6 -10 29 -46 53 -81 23 -35 41 -70 39 -78 -2
-8 -92 -147 -200 -308 -129 -192 -192 -294 -184 -298 7 -2 69 -3 138 -2 l124
3 68 100 c37 55 71 107 75 115 28 59 138 210 150 208 12 -2 122 -149 122 -163
0 -5 151 -229 168 -247 13 -15 34 -18 144 -18 84 0 128 4 128 11 0 6 -88 142
-195 303 -107 161 -195 297 -195 303 0 5 83 135 185 287 102 153 183 282 180
287 -4 5 -62 9 -130 9 l-124 0 -78 -117 c-43 -65 -82 -126 -88 -135 -53 -90
-103 -157 -115 -157 -8 0 -42 41 -74 92 -33 51 -93 143 -134 205 l-74 112
-123 0 c-72 0 -126 -4 -130 -10z"/>
</g>
</svg>
