<?xml version="1.0" standalone="no"?>
<!DOCTYPE svg PUBLIC "-//W3C//DTD SVG 20010904//EN"
 "http://www.w3.org/TR/2001/REC-SVG-20010904/DTD/svg10.dtd">
<svg version="1.0" xmlns="http://www.w3.org/2000/svg"
 width="900.000000pt" height="900.000000pt" viewBox="0 0 900.000000 900.000000"
 preserveAspectRatio="xMidYMid meet">
<metadata>
Created by potrace 1.10, written by Peter Selinger 2001-2011
</metadata>
<g transform="translate(0.000000,900.000000) scale(0.100000,-0.100000)"
fill="#2d3946" stroke="none">
<path d="M486 6240 c-63 -19 -99 -89 -61 -120 8 -7 15 -18 15 -24 1 -6 21 -26
45 -44 25 -18 45 -38 45 -44 0 -15 -79 -91 -119 -114 -41 -24 -46 -43 -21 -76
11 -15 20 -40 20 -55 0 -33 -53 -103 -78 -103 -19 0 -102 -29 -119 -42 -6 -5
-16 -22 -22 -38 -9 -26 -6 -33 20 -59 36 -37 36 -41 0 -41 -16 0 -34 -7 -41
-15 -7 -8 -18 -15 -26 -15 -19 0 -85 -83 -100 -127 -8 -21 -14 -51 -14 -68 0
-35 22 -101 38 -117 7 -7 12 -21 12 -31 0 -10 6 -31 14 -45 20 -40 37 -92 45
-137 4 -22 13 -50 19 -62 7 -12 12 -36 12 -53 0 -17 5 -41 11 -52 7 -12 15
-47 19 -77 4 -31 12 -69 18 -86 6 -16 18 -57 28 -90 17 -60 35 -106 61 -157 7
-14 13 -33 13 -41 0 -9 7 -28 15 -44 8 -15 44 -89 80 -163 68 -138 86 -171 96
-180 3 -3 25 -36 48 -75 23 -38 47 -79 54 -89 50 -81 247 -332 299 -381 129
-121 280 -234 396 -296 12 -7 22 -16 22 -21 0 -4 5 -8 11 -8 7 0 33 -13 58
-28 25 -16 58 -32 74 -36 15 -3 27 -10 27 -15 0 -5 13 -12 30 -16 16 -4 32
-11 35 -16 4 -5 14 -9 23 -9 9 0 29 -6 44 -14 15 -8 42 -17 60 -21 18 -4 38
-11 43 -15 12 -10 91 -28 170 -41 33 -5 74 -13 90 -18 17 -5 70 -12 119 -15
49 -4 94 -10 100 -15 6 -5 86 -12 178 -15 97 -3 177 -10 189 -17 16 -8 32 -8
58 -1 20 6 113 15 207 20 94 5 180 14 192 21 11 6 54 11 94 11 40 0 91 5 113
11 22 6 57 14 77 18 21 5 43 13 50 18 27 22 143 32 206 18 21 -5 38 -3 48 6
27 22 86 41 139 46 28 2 73 11 101 20 48 15 52 19 58 52 13 84 -6 95 -169 96
-74 0 -120 5 -142 15 -30 13 -34 13 -56 -8 -29 -27 -112 -30 -159 -6 -25 13
-48 15 -101 11 -78 -7 -127 0 -127 17 0 6 22 36 50 66 69 76 70 78 70 93 0 45
-85 50 -145 9 -22 -15 -49 -42 -60 -60 -11 -17 -25 -31 -31 -32 -6 0 -28 -18
-49 -41 -31 -34 -42 -40 -64 -34 -14 3 -44 10 -66 15 -72 16 -129 32 -163 46
-18 8 -41 14 -50 14 -10 0 -27 7 -38 15 -10 8 -27 15 -36 15 -21 0 -162 67
-233 110 -27 16 -59 34 -70 40 -38 20 -116 70 -125 80 -3 3 -25 21 -50 40 -55
43 -106 96 -235 243 -17 19 -199 261 -213 283 -6 10 -15 26 -18 34 -4 8 -17
38 -30 65 -12 28 -25 64 -29 80 -4 17 -12 46 -20 65 -13 34 -32 102 -56 190
-17 65 -28 148 -40 290 -5 69 -15 146 -20 172 -12 51 -29 439 -22 468 3 10 18
27 34 40 30 21 31 21 82 5 29 -9 65 -23 80 -31 41 -20 163 -30 181 -14 13 10
13 15 -2 38 -33 52 -75 80 -192 130 -19 8 -48 21 -63 28 -16 8 -34 14 -42 14
-7 0 -18 7 -25 15 -6 7 -33 17 -58 21 -26 4 -60 15 -77 25 -16 10 -40 23 -52
28 -11 5 -24 14 -27 20 -3 5 -24 12 -45 16 -43 7 -57 18 -63 50 -5 30 -75 65
-130 65 -54 0 -123 24 -153 52 -17 16 -18 21 -7 39 17 27 8 53 -24 67 -32 15
-57 15 -105 0 -33 -9 -45 -8 -79 7 -36 16 -40 22 -40 55 0 20 7 45 15 56 8 10
15 27 15 37 0 32 -39 76 -78 87 -42 11 -47 11 -86 0z m83 -39 c14 -10 22 -25
19 -37 -3 -16 -12 -19 -58 -19 -49 0 -55 2 -58 22 -2 15 5 26 25 36 37 20 44
20 72 -2z m21 -250 c0 -23 -16 -36 -25 -21 -9 14 1 40 15 40 5 0 10 -9 10 -19z
m158 -8 c-2 -13 -13 -18 -38 -18 -25 0 -36 5 -38 18 -3 14 4 17 38 17 34 0 41
-3 38 -17z m-13 -82 c3 -5 19 -13 36 -16 36 -8 99 -43 99 -55 0 -4 -7 -11 -16
-14 -9 -3 -14 -15 -12 -28 3 -20 -2 -23 -31 -26 -26 -3 -40 3 -63 25 -39 37
-62 91 -47 109 13 16 25 18 34 5z m-47 -87 c38 -27 24 -49 -33 -51 -28 -1 -72
-4 -100 -5 -44 -3 -50 -1 -50 17 0 15 8 21 34 23 19 2 40 10 48 18 19 19 73
18 101 -2z m319 -60 c3 -9 0 -20 -8 -25 -11 -6 -11 -11 -1 -21 6 -6 12 -20 12
-30 0 -14 -5 -17 -24 -12 -21 5 -25 1 -31 -25 -3 -16 -14 -32 -23 -34 -23 -5
-72 20 -72 38 0 22 -40 41 -51 24 -5 -8 -9 -17 -9 -21 0 -11 -38 -10 -61 2
-13 8 -35 6 -78 -5 -32 -8 -75 -15 -94 -15 -22 0 -37 -6 -41 -16 -4 -11 -17
-14 -48 -12 -35 2 -43 7 -43 23 0 15 8 21 29 23 16 2 35 10 43 18 9 8 34 14
63 14 27 0 51 4 55 9 3 5 31 12 63 16 73 8 148 24 192 41 72 27 118 30 127 8z
m459 -142 c13 -20 14 -29 3 -53 -15 -38 -85 -95 -124 -102 -16 -3 -61 -15
-100 -27 -38 -11 -97 -25 -130 -30 -33 -5 -76 -13 -95 -19 -19 -6 -69 -11
-110 -11 -47 0 -83 -5 -95 -14 -11 -7 -32 -16 -47 -20 -16 -3 -28 -11 -28 -16
0 -6 -8 -10 -19 -10 -10 0 -24 -7 -31 -15 -7 -8 -17 -15 -22 -15 -6 0 -24 -6
-41 -14 -37 -16 -96 -36 -108 -36 -5 0 -9 9 -9 19 0 46 -89 27 -120 -26 -11
-18 -27 -33 -38 -33 -10 0 -42 22 -72 48 l-53 48 18 27 c21 33 17 40 -18 32
-43 -11 -60 -49 -54 -116 7 -75 -9 -92 -43 -47 -27 37 -33 125 -10 153 24 28
85 63 124 70 20 4 39 11 42 16 11 18 44 9 44 -11 0 -61 55 -104 125 -98 42 3
58 22 25 31 -12 3 -20 13 -20 27 0 12 -11 31 -25 42 -27 21 -33 47 -12 49 6 0
34 2 60 4 27 1 54 8 60 14 6 6 26 11 45 11 19 0 48 6 65 14 18 8 46 16 62 19
17 3 44 9 60 15 89 30 136 42 163 42 16 0 45 6 63 14 19 7 55 17 81 20 26 4
50 12 54 17 4 6 65 9 160 8 150 -3 155 -4 170 -27z m-1094 -3 c19 -10 19 -12
-13 -40 -19 -15 -42 -28 -51 -29 -48 -1 -67 35 -23 46 13 3 29 12 36 20 14 17
24 17 51 3z m1368 -109 c25 -25 17 -49 -8 -27 -10 8 -25 17 -35 20 -20 8 -14
27 9 27 8 0 23 -9 34 -20z m-383 -122 c16 -22 33 -93 33 -142 0 -42 -2 -46
-23 -46 -15 0 -28 9 -35 24 -8 18 -16 23 -31 19 -15 -4 -22 -17 -27 -52 -4
-25 -10 -56 -15 -68 -9 -24 8 -70 28 -77 15 -6 53 31 53 50 0 7 -4 16 -10 19
-12 7 -14 65 -2 65 10 0 42 -54 42 -73 0 -8 7 -21 16 -28 15 -12 16 -30 11
-131 -5 -95 -3 -120 9 -132 18 -19 18 -70 -1 -86 -8 -6 -23 -9 -35 -5 -14 4
-20 2 -20 -8 0 -19 19 -34 50 -39 36 -5 37 -34 0 -64 -26 -22 -31 -33 -28 -63
2 -24 8 -36 18 -36 10 0 14 8 13 22 -3 21 32 52 43 40 3 -3 8 -30 11 -61 4
-39 2 -60 -8 -72 -11 -14 -10 -15 6 -12 15 2 20 -5 27 -37 5 -22 15 -54 23
-72 8 -17 15 -40 15 -50 0 -10 9 -36 20 -58 11 -22 20 -45 20 -52 0 -7 -9 -18
-20 -25 -27 -17 -25 -42 6 -63 37 -24 64 -53 64 -68 0 -21 12 -28 27 -15 18
14 35 -6 128 -142 35 -52 89 -122 119 -155 34 -36 56 -69 56 -83 0 -23 67
-122 83 -122 4 0 25 -13 45 -29 47 -37 140 -84 221 -111 42 -14 78 -34 105
-60 22 -22 55 -46 71 -54 73 -36 106 -46 134 -44 16 1 38 -5 48 -14 31 -27 81
-48 115 -48 18 0 53 -9 77 -20 35 -16 41 -23 32 -34 -18 -22 -81 -26 -146 -10
-33 9 -80 20 -105 26 -25 6 -54 17 -65 24 -11 8 -29 14 -41 14 -12 0 -24 7
-28 15 -3 8 -16 15 -29 15 -13 0 -32 7 -43 15 -23 17 -159 21 -169 4 -12 -18
-49 -27 -64 -15 -11 8 -17 6 -29 -12 -8 -12 -24 -22 -35 -22 -23 0 -57 27 -57
45 0 27 -38 47 -77 41 -46 -8 -68 6 -76 51 -4 21 -1 35 9 43 29 25 -1 37 -80
32 -48 -3 -76 -1 -80 7 -4 6 -18 11 -31 11 -30 0 -95 55 -95 80 0 27 14 32 66
24 42 -6 45 -8 40 -30 -5 -18 -2 -26 11 -30 10 -3 27 -10 38 -15 30 -13 87
-15 92 -3 6 16 -163 177 -207 197 -8 4 -28 16 -45 26 -48 31 -106 58 -165 77
-94 29 -241 106 -238 123 4 22 36 26 57 7 10 -9 25 -14 34 -10 10 3 21 -2 29
-15 7 -12 18 -21 24 -21 6 0 23 -9 37 -20 39 -31 87 -21 87 17 0 45 -89 133
-135 133 -26 0 -147 79 -139 91 3 5 20 9 39 9 35 0 75 30 75 57 0 32 -95 144
-121 142 -11 0 -11 -2 -1 -6 6 -2 12 -15 12 -28 0 -12 7 -28 15 -35 19 -16 20
-50 1 -50 -15 0 -46 52 -46 77 0 20 -37 53 -63 56 -17 1 -23 -4 -25 -23 -6
-39 -20 -46 -33 -16 -8 18 -18 25 -29 21 -28 -9 -60 26 -66 70 -3 22 -10 51
-15 65 -10 26 -56 66 -66 57 -3 -3 3 -39 13 -80 14 -63 24 -82 60 -118 81 -82
40 -93 -90 -24 -47 25 -92 45 -99 45 -25 0 -68 49 -74 84 -7 44 17 54 63 27
47 -28 97 -36 112 -18 10 12 9 16 -3 21 -17 6 -20 57 -4 73 8 8 5 14 -10 22
-12 7 -21 16 -21 21 0 15 34 12 66 -5 26 -14 30 -13 42 2 15 21 6 51 -24 82
-29 29 -30 52 -4 69 17 11 21 10 26 -5 12 -39 46 -103 54 -103 5 0 12 5 16 11
3 6 15 8 26 6 14 -4 23 3 35 28 l16 34 -57 66 c-32 36 -64 65 -71 65 -29 0
-45 -13 -45 -36 0 -14 -7 -27 -15 -30 -8 -4 -15 -17 -15 -30 0 -15 -6 -24 -15
-24 -8 0 -28 -13 -43 -30 -16 -16 -37 -30 -47 -30 -16 0 -17 7 -13 65 6 64 -3
88 -24 67 -6 -6 -11 -35 -12 -64 -1 -47 -4 -53 -23 -56 -37 -5 -27 -28 32 -74
30 -23 55 -45 55 -49 0 -10 -34 -36 -56 -43 -26 -8 -51 14 -60 52 -18 77 -75
120 -88 66 -9 -33 -40 -29 -44 7 -2 19 2 28 16 31 11 3 24 19 29 35 12 33 -1
54 -49 86 -38 24 -35 39 14 80 47 39 69 37 90 -9 9 -19 8 -28 -7 -44 -18 -19
-18 -22 -2 -56 19 -39 45 -54 58 -33 15 24 11 125 -6 139 -8 7 -15 18 -15 24
-1 24 -54 50 -100 48 -41 -2 -47 1 -63 29 -23 42 -22 57 8 65 15 4 28 16 31
30 8 33 41 54 83 54 59 0 95 58 56 90 -8 7 -15 18 -15 25 0 7 -7 18 -16 25 -8
8 -14 25 -12 39 3 25 6 26 78 31 86 6 130 28 130 66 0 22 4 24 46 22 40 -1 50
3 65 24 18 25 20 25 61 12 24 -8 53 -20 65 -26 34 -17 39 -2 10 28 -42 42 -39
45 58 58 72 10 139 26 149 36 14 14 32 13 43 -2z m-1097 -188 c12 -23 6 -40
-15 -40 -19 0 -27 17 -20 40 8 26 21 25 35 0z m352 -82 c24 -16 26 -22 16 -43
-6 -13 -20 -26 -32 -29 -55 -15 -93 2 -76 35 8 14 6 19 -10 24 -20 6 -26 25
-13 38 11 11 87 -5 115 -25z m-166 -42 c3 -8 1 -24 -5 -35 -13 -24 2 -37 19
-16 17 21 37 19 43 -4 5 -21 -9 -41 -30 -41 -7 0 -13 -5 -13 -11 0 -6 -12 -9
-27 -7 -19 2 -27 8 -25 19 1 9 -11 31 -28 49 -24 25 -28 36 -19 46 15 19 78
18 85 0z m-208 -69 c2 -12 -3 -17 -17 -17 -12 0 -21 6 -21 13 0 31 32 34 38 4z
m189 -89 c27 -25 29 -43 7 -56 -14 -8 -14 -10 0 -21 22 -18 20 -28 -5 -36 -14
-5 -19 -13 -16 -26 4 -13 0 -19 -13 -19 -31 0 -41 23 -31 76 6 32 6 53 -1 61
-14 17 -3 43 19 43 9 0 27 -10 40 -22z m-129 -86 c3 -30 1 -33 -20 -30 -23 3
-34 27 -24 54 11 28 41 11 44 -24z m192 -97 c0 -8 -4 -15 -10 -15 -5 0 -10 7
-10 15 0 8 5 15 10 15 6 0 10 -7 10 -15z m-155 -31 c14 -15 25 -34 25 -43 0
-10 5 -22 11 -28 5 -5 13 -37 15 -69 3 -32 12 -72 19 -89 35 -78 45 -104 45
-118 0 -8 7 -20 15 -27 8 -7 15 -19 15 -26 0 -8 -7 -14 -15 -14 -9 0 -15 -9
-15 -25 0 -14 4 -25 9 -25 5 0 12 -15 15 -34 4 -19 10 -36 14 -38 4 -2 16 -20
26 -41 19 -37 28 -49 82 -110 14 -15 34 -46 46 -69 12 -23 39 -57 60 -76 21
-19 38 -39 38 -46 0 -6 6 -23 14 -38 8 -15 17 -41 21 -57 7 -32 51 -73 92 -85
11 -4 24 -17 27 -29 9 -38 65 -97 92 -97 18 0 24 -5 24 -21 0 -25 70 -99 94
-99 10 0 39 -15 67 -32 39 -26 49 -38 49 -60 0 -20 -5 -28 -17 -28 -34 0 -109
46 -165 100 -31 30 -82 77 -112 103 -69 59 -189 213 -216 276 -9 20 -66 107
-80 121 -13 13 -130 193 -130 200 0 4 -7 13 -15 20 -8 7 -15 20 -15 30 0 10
-7 20 -15 24 -8 3 -15 16 -15 29 0 14 -7 30 -15 37 -8 7 -15 23 -15 35 0 12
-7 28 -15 35 -17 14 -20 40 -5 40 16 0 12 23 -15 78 -14 29 -25 55 -25 58 0 8
-27 68 -61 137 -16 31 -29 61 -29 66 0 9 41 60 48 61 2 0 14 -12 27 -26z m635
-81 c0 -19 -3 -24 -10 -17 -6 6 -8 18 -4 27 9 24 14 21 14 -10z m-420 -53 c0
-11 -4 -20 -10 -20 -5 0 -10 9 -10 20 0 11 5 20 10 20 6 0 10 -9 10 -20z m177
-377 c5 -15 -36 -28 -49 -15 -6 6 -7 15 -3 22 9 14 47 9 52 -7z m-4 -82 c15
-8 27 -22 27 -31 0 -23 19 -38 54 -42 23 -2 31 -10 37 -31 6 -23 5 -28 -7 -23
-9 3 -26 6 -39 6 -16 0 -28 9 -37 28 -7 15 -22 28 -33 30 -26 4 -59 48 -51 68
3 9 9 14 14 12 4 -2 19 -10 35 -17z m472 -36 c0 -22 -22 -30 -44 -16 -21 14
-5 43 21 39 15 -2 23 -10 23 -23z m-142 -12 c42 -4 48 -8 45 -26 -2 -12 -15
-28 -30 -35 -29 -14 -35 -26 -18 -37 6 -3 10 -15 10 -27 0 -11 8 -22 20 -25
11 -3 20 -13 20 -22 0 -10 11 -28 25 -41 28 -26 71 -108 61 -117 -6 -7 -62 15
-80 31 -21 19 -75 56 -82 56 -4 0 -27 9 -51 21 -31 15 -43 27 -43 42 0 32 -24
93 -44 116 -17 18 -16 20 23 42 23 12 41 27 41 32 0 5 12 6 28 2 15 -4 49 -9
75 -12z m-302 -114 c6 -25 5 -26 -20 -20 -35 10 -44 54 -10 49 15 -2 25 -12
30 -29z m349 -233 c0 -7 -9 -16 -21 -19 -12 -3 -18 -10 -14 -16 10 -16 56 -13
76 5 24 22 57 11 38 -12 -10 -13 -10 -17 2 -25 8 -5 24 -9 36 -9 12 0 24 -4
27 -9 3 -5 22 -12 41 -15 37 -7 41 -15 25 -47 -9 -15 -22 -19 -70 -19 -32 0
-71 6 -87 14 -15 8 -41 20 -56 27 -35 16 -57 56 -57 104 0 32 2 35 30 35 19 0
30 -5 30 -14z m180 5 c0 -5 9 -13 20 -16 31 -10 25 -35 -8 -35 -29 0 -78 40
-65 53 10 10 53 8 53 -2z m100 -86 c14 -17 46 -20 55 -5 9 15 61 12 75 -5 7
-8 28 -15 46 -15 24 0 34 -5 34 -15 0 -21 -63 -20 -95 1 -15 10 -32 13 -42 9
-15 -6 -12 -10 17 -22 l35 -15 -24 -19 -23 -19 25 0 c54 0 79 -32 36 -45 -32
-10 -69 3 -69 25 0 18 -48 60 -69 60 -7 0 -14 7 -17 15 -3 8 -14 17 -25 20
-10 4 -19 15 -19 26 0 23 41 26 60 4z m-4 -144 c-4 -6 -16 -11 -27 -11 -21 0
-27 35 -6 43 16 6 41 -18 33 -32z m-172 23 c22 -9 20 -24 -3 -24 -21 0 -34 13
-24 24 8 7 8 7 27 0z m261 -64 c3 -5 15 -10 25 -10 10 0 25 -7 34 -15 20 -21
26 -19 26 10 0 16 6 25 15 25 19 0 19 -29 -1 -68 -17 -34 -44 -41 -64 -17 -7
8 -23 15 -36 15 -17 0 -28 8 -34 26 -6 14 -8 30 -4 35 7 12 31 12 39 -1z m-60
-35 c0 -13 -8 -21 -24 -23 -28 -4 -46 11 -37 33 9 25 61 16 61 -10z m-9 -76
c8 -13 -14 -56 -31 -63 -18 -6 -55 4 -55 16 0 5 7 20 16 33 17 26 57 34 70 14z
m184 -18 c0 -25 -28 -53 -48 -49 -16 3 -35 52 -24 62 3 3 20 6 39 6 26 0 33
-4 33 -19z m88 -13 c15 -15 16 -55 1 -63 -31 -20 -86 25 -73 59 7 19 55 21 72
4z m-210 -39 c-2 -6 -8 -10 -13 -10 -5 0 -11 4 -13 10 -2 6 4 11 13 11 9 0 15
-5 13 -11z m422 -4 c0 -21 -24 -29 -49 -15 -28 14 -18 30 20 30 19 0 29 -5 29
-15z m-35 -48 c27 -21 9 -37 -41 -37 -32 0 -46 5 -51 16 -12 32 56 47 92 21z
m-415 -17 c0 -13 11 -25 28 -33 15 -6 31 -17 35 -24 4 -7 16 -13 25 -13 9 0
26 -7 36 -15 11 -8 26 -15 34 -15 7 0 20 -7 29 -16 9 -8 27 -14 42 -13 17 2
42 -9 70 -29 50 -37 54 -37 71 -17 14 16 75 21 85 6 3 -6 37 -13 75 -17 39 -3
70 -10 70 -14 0 -4 11 -11 25 -14 35 -9 31 -28 -10 -47 -40 -19 -143 -19 -192
-1 -47 17 -93 32 -128 42 -59 17 -120 42 -136 56 -8 8 -26 14 -38 14 -14 0
-25 7 -28 19 -3 14 -13 18 -36 17 -25 -1 -31 3 -29 16 2 15 -2 17 -28 12 -23
-5 -30 -3 -30 10 0 11 -9 16 -30 16 -32 0 -36 7 -17 30 14 17 58 49 70 49 4 1
7 -8 7 -19z m125 -20 c0 -16 -28 -25 -52 -16 -12 5 -13 9 -3 22 16 18 55 15
55 -6z m855 -73 c0 -5 17 -6 39 -2 37 6 38 5 44 -24 8 -38 -7 -81 -27 -81 -8
0 -23 17 -32 38 -24 50 -23 50 -44 22 -15 -20 -21 -23 -31 -12 -15 14 -55 16
-64 2 -14 -22 -23 -8 -22 33 2 38 4 42 27 39 14 -1 36 7 50 18 25 19 25 19 42
-3 10 -12 18 -26 18 -30z m824 1 c44 -8 81 -18 83 -24 9 -26 -52 -34 -207 -27
-133 7 -155 10 -158 25 -9 46 100 56 282 26z m184 -25 c5 -17 -26 -29 -40 -15
-6 6 -7 15 -3 22 9 14 37 9 43 -7z m172 2 c0 -8 -7 -15 -15 -15 -8 0 -15 7
-15 15 0 8 7 15 15 15 8 0 15 -7 15 -15z m235 4 c4 -6 5 -12 3 -14 -7 -7 -166
-10 -173 -3 -18 18 12 28 85 28 45 0 82 -5 85 -11z m-1700 -39 c0 -31 -31 -39
-40 -11 -8 26 2 43 23 39 11 -2 17 -13 17 -28z m463 -3 c14 -15 19 -30 15 -45
-7 -29 -37 -25 -41 6 -2 12 -8 22 -13 22 -5 0 -9 9 -9 20 0 27 21 25 48 -3z
m77 -17 c4 -6 13 -5 25 2 15 10 22 10 32 0 9 -9 7 -17 -12 -37 -28 -30 -46
-32 -55 -6 -3 11 -13 22 -21 25 -8 3 -12 10 -9 16 8 13 32 13 40 0z m-193
-126 c21 -11 63 -14 172 -12 79 2 148 -1 152 -5 21 -21 -40 -27 -271 -26 -198
0 -255 3 -275 14 -15 9 -54 14 -102 15 -81 0 -111 6 -102 21 10 16 394 9 426
-7z m423 -24 c4 -6 -5 -10 -19 -10 -14 0 -26 5 -26 10 0 6 9 10 19 10 11 0 23
-4 26 -10z"/>
<path d="M1146 5558 c-22 -31 -20 -43 9 -62 19 -13 30 -14 45 -6 27 14 25 42
-3 68 -29 27 -32 27 -51 0z"/>
<path d="M1268 5546 c-6 -14 -9 -29 -5 -32 8 -9 58 27 54 40 -7 22 -37 17 -49
-8z"/>
<path d="M885 5491 c-6 -5 -28 -11 -50 -13 -73 -6 -42 -23 46 -25 72 -2 88 0
93 13 3 9 4 20 0 25 -7 12 -77 12 -89 0z"/>
<path d="M655 5409 c-10 -15 25 -49 51 -49 31 0 39 17 18 41 -19 21 -59 26
-69 8z"/>
<path d="M582 5358 c-15 -19 -3 -34 41 -53 46 -19 57 -19 57 0 0 39 -75 80
-98 53z"/>
<path d="M916 5031 c-12 -18 5 -62 23 -59 22 4 22 62 -1 66 -9 2 -19 -1 -22
-7z"/>
<path d="M830 4985 c0 -31 27 -75 46 -75 24 0 15 -24 -13 -37 -15 -7 -33 -13
-40 -13 -19 0 -16 17 4 24 12 5 13 10 5 18 -9 9 -16 7 -30 -5 -10 -9 -26 -17
-36 -17 -11 0 -15 -5 -12 -12 3 -7 9 -20 12 -30 3 -9 13 -19 22 -22 10 -3 24
-9 32 -14 101 -58 150 -55 75 5 -19 15 -35 31 -35 36 0 14 51 7 56 -8 4 -8 12
-15 20 -15 8 0 14 7 14 15 0 8 -7 15 -15 15 -10 0 -14 9 -13 28 4 60 -2 92
-17 92 -8 0 -23 9 -32 20 -24 27 -43 25 -43 -5z"/>
<path d="M1227 4923 c-4 -7 -4 -20 2 -30 5 -10 14 -31 21 -48 11 -29 12 -29
26 -10 18 24 14 37 -14 50 -12 5 -22 19 -24 30 -2 14 -6 16 -11 8z"/>
<path d="M710 4811 c0 -10 7 -21 15 -25 17 -6 21 -26 5 -26 -13 0 -50 -37 -50
-50 0 -5 7 -10 15 -10 8 0 15 -6 15 -14 0 -7 10 -16 23 -20 30 -8 50 19 41 58
-6 27 -5 28 20 22 22 -5 25 -4 18 14 -8 22 -69 70 -89 70 -7 0 -13 -9 -13 -19z"/>
<path d="M650 4745 c0 -8 7 -15 15 -15 8 0 15 7 15 15 0 8 -7 15 -15 15 -8 0
-15 -7 -15 -15z"/>
<path d="M827 4694 c-4 -4 -7 -11 -7 -16 0 -13 50 -6 53 7 2 12 -36 19 -46 9z"/>
<path d="M1130 4669 c0 -38 24 -35 28 4 2 19 -1 27 -12 27 -11 0 -16 -10 -16
-31z"/>
<path d="M1210 4668 c-24 -39 -24 -49 -6 -108 18 -58 48 -110 63 -110 7 0 20
12 29 26 16 24 16 27 1 54 -9 15 -17 41 -17 57 0 15 -7 37 -15 47 -8 11 -15
28 -15 37 0 32 -19 31 -40 -3z"/>
<path d="M896 4662 c-3 -6 -1 -14 5 -17 15 -10 25 3 12 16 -7 7 -13 7 -17 1z"/>
<path d="M796 4601 c-7 -11 18 -33 27 -24 4 3 7 12 7 20 0 15 -26 18 -34 4z"/>
<path d="M1040 4235 c0 -8 7 -15 15 -15 8 0 15 7 15 15 0 8 -7 15 -15 15 -8 0
-15 -7 -15 -15z"/>
<path d="M1465 4180 c-4 -7 -3 -15 3 -19 6 -3 14 -19 17 -34 4 -15 12 -26 19
-24 14 4 21 77 7 77 -5 0 -16 3 -24 6 -8 3 -18 0 -22 -6z"/>
<path d="M1550 3964 c0 -17 22 -14 28 4 2 7 -3 12 -12 12 -9 0 -16 -7 -16 -16z"/>
<path d="M1660 3820 c0 -23 26 -38 41 -23 14 14 0 43 -22 43 -12 0 -19 -7 -19
-20z"/>
<path d="M1755 3691 c-3 -12 4 -33 20 -57 28 -41 42 -54 63 -54 13 0 17 36 5
42 -5 2 -21 22 -37 46 -32 47 -42 51 -51 23z"/>
<path d="M945 3851 c-6 -11 9 -23 19 -14 9 9 7 23 -3 23 -6 0 -12 -4 -16 -9z"/>
<path d="M1825 2950 c-4 -6 5 -10 19 -10 14 0 26 5 26 10 0 6 -9 10 -19 10
-11 0 -23 -4 -26 -10z"/>
<path d="M1907 2924 c-15 -16 -5 -24 29 -24 24 0 34 4 32 13 -5 13 -50 22 -61
11z"/>
<path d="M4632 5540 c-23 -17 -49 -30 -58 -30 -8 0 -17 -7 -20 -15 -4 -8 -14
-15 -24 -15 -10 0 -23 -6 -29 -14 -6 -8 -22 -16 -34 -19 -83 -20 -137 -54
-137 -87 0 -21 52 -60 81 -60 16 0 63 -46 92 -90 15 -22 17 -91 17 -740 0
-663 -2 -717 -18 -736 -23 -27 -67 -54 -90 -54 -27 0 -42 -20 -42 -57 l0 -34
178 6 c97 3 186 5 197 5 11 -1 64 -3 119 -6 91 -5 100 -4 118 16 18 19 19 25
8 45 -10 18 -29 27 -82 39 -39 9 -75 16 -80 16 -5 0 -22 10 -39 22 -59 44 -59
41 -59 907 0 574 3 793 12 817 9 26 8 40 -3 71 -19 50 -49 53 -107 13z"/>
<path d="M7810 5555 c-7 -8 -17 -15 -22 -15 -6 0 -27 -13 -48 -30 -21 -16 -45
-30 -54 -30 -9 0 -19 -7 -22 -15 -4 -8 -16 -15 -28 -15 -12 0 -31 -7 -42 -15
-10 -8 -28 -15 -40 -15 -25 0 -74 -43 -74 -65 0 -19 57 -55 86 -55 12 0 27 -7
34 -15 7 -8 18 -15 24 -15 6 0 20 -17 31 -37 19 -35 20 -58 20 -759 l0 -722
-23 -25 c-13 -14 -38 -31 -55 -37 -62 -23 -75 -33 -79 -55 -3 -13 -1 -30 4
-39 11 -20 74 -32 92 -17 9 8 96 12 272 14 l259 2 3 26 c4 37 -23 55 -108 68
-98 15 -122 33 -137 102 -15 72 -16 175 -1 215 7 19 27 42 49 56 21 12 39 26
39 30 0 3 14 9 30 13 33 7 56 -5 71 -40 5 -11 18 -33 29 -50 11 -16 23 -38 26
-47 4 -10 10 -18 15 -18 6 0 13 -8 16 -17 17 -47 237 -316 281 -345 30 -20
127 -25 137 -8 4 6 58 10 129 10 135 0 146 4 146 57 0 41 -15 49 -109 56 -45
4 -80 12 -90 22 -10 8 -22 15 -27 15 -11 1 -134 118 -188 180 -77 88 -246 326
-246 345 0 13 160 155 184 164 6 2 27 17 47 32 20 16 43 29 51 29 7 0 22 6 33
13 11 8 67 22 125 31 58 10 110 22 117 28 19 15 16 65 -4 76 -9 6 -108 7 -234
4 -141 -3 -223 -1 -231 5 -7 6 -41 13 -76 17 -58 7 -64 5 -82 -16 -11 -13 -19
-28 -20 -34 0 -21 36 -42 95 -55 118 -25 116 -46 -20 -154 -54 -42 -178 -149
-206 -177 -10 -9 -29 -24 -44 -34 -23 -15 -28 -15 -41 -2 -14 13 -15 92 -14
619 0 332 3 627 6 655 5 39 2 57 -11 78 -19 29 -55 35 -75 11z"/>
<path d="M2841 5399 c-14 -38 -1 -57 55 -84 70 -33 116 -82 132 -139 17 -64
17 -1266 0 -1352 -17 -88 -69 -144 -134 -144 -39 0 -56 -20 -52 -57 l3 -28 85
3 c151 4 372 3 492 -3 114 -6 117 -6 132 17 24 36 10 66 -33 73 -20 3 -55 10
-78 16 -23 5 -55 9 -71 9 -16 0 -35 7 -42 15 -7 8 -18 15 -25 15 -7 0 -15 10
-19 23 -3 12 -6 174 -6 361 l0 338 163 -4 c204 -6 237 -18 281 -105 9 -18 16
-44 16 -58 0 -29 24 -71 46 -79 8 -3 26 -1 39 4 l26 10 -2 162 c-3 162 9 311
25 336 5 8 3 24 -5 38 -10 19 -20 24 -51 24 -22 0 -40 -5 -43 -12 -2 -7 -11
-47 -19 -88 -23 -106 -26 -108 -276 -112 l-195 -3 -3 341 c-2 297 0 343 13
354 17 14 133 16 372 7 173 -7 199 -18 261 -104 12 -18 22 -39 22 -47 0 -24
33 -74 58 -88 17 -9 28 -9 40 -1 14 8 18 34 23 149 3 78 12 153 19 170 7 17
10 39 7 48 -6 16 -22 17 -179 11 -95 -3 -234 -8 -308 -10 -74 -3 -198 -7 -275
-11 -83 -3 -187 -1 -255 6 -233 25 -229 25 -239 -1z m357 -892 c2 -10 -3 -17
-12 -17 -10 0 -16 9 -16 21 0 24 23 21 28 -4z"/>
<path d="M5675 4681 c-16 -5 -47 -9 -67 -10 -21 0 -54 -8 -75 -17 -70 -31 -98
-43 -113 -48 -33 -13 -111 -63 -146 -94 -29 -26 -38 -42 -41 -76 -5 -38 -2
-46 23 -70 59 -54 165 -22 220 67 63 101 77 117 115 129 30 8 45 8 65 0 13 -7
33 -12 42 -12 24 0 68 -43 92 -90 29 -57 29 -219 0 -245 -27 -24 -115 -55
-160 -55 -19 -1 -46 -7 -60 -15 -14 -8 -35 -14 -47 -15 -12 0 -39 -7 -60 -16
-21 -9 -54 -24 -73 -32 -19 -8 -42 -19 -50 -23 -8 -5 -25 -13 -37 -19 -12 -5
-44 -31 -70 -58 -64 -66 -81 -125 -62 -215 12 -54 21 -69 70 -118 33 -33 68
-59 85 -62 16 -3 48 -10 72 -16 34 -9 55 -8 101 4 33 8 69 15 81 15 12 0 34 6
48 14 76 40 160 76 178 76 12 0 33 -17 54 -45 21 -28 44 -46 62 -50 58 -13
158 17 233 69 16 12 39 26 50 31 13 7 21 22 23 47 4 45 -15 53 -90 40 -132
-24 -143 -4 -133 243 17 433 9 524 -50 588 -19 20 -38 37 -43 37 -5 0 -15 6
-21 14 -18 22 -167 40 -216 27z m116 -601 c17 -10 19 -22 19 -142 l0 -132 -32
-33 c-19 -20 -42 -33 -57 -33 -15 -1 -37 -7 -51 -15 -36 -21 -154 -19 -188 2
-41 26 -57 45 -70 82 -27 77 -8 130 65 184 49 36 153 77 195 77 13 0 30 5 38
10 20 13 57 13 81 0z"/>
<path d="M6848 4685 c-3 -4 -35 -9 -70 -12 -56 -4 -84 -13 -138 -44 -8 -5 -22
-12 -30 -16 -8 -4 -36 -28 -61 -55 -37 -38 -48 -58 -54 -96 -4 -26 -11 -53
-17 -59 -11 -14 -8 -39 14 -117 15 -54 100 -156 129 -156 10 0 22 -6 26 -12 4
-7 51 -34 103 -59 242 -119 229 -111 265 -149 27 -28 30 -38 30 -95 0 -72 -7
-81 -83 -115 -48 -22 -124 -26 -187 -9 -22 6 -51 13 -65 16 -47 11 -115 65
-163 129 -36 49 -53 64 -72 64 -18 0 -28 -8 -35 -25 -13 -33 -1 -246 14 -249
6 -2 27 -9 46 -16 19 -7 60 -16 90 -20 30 -5 77 -14 103 -20 84 -21 300 -2
357 31 8 5 30 15 48 24 37 16 122 101 122 120 0 7 7 26 15 41 22 42 19 151 -4
205 -23 51 -85 127 -115 140 -12 5 -34 18 -51 29 -16 11 -37 22 -45 26 -79 31
-97 39 -111 51 -8 7 -25 13 -36 13 -11 0 -26 7 -33 15 -7 8 -20 15 -30 15 -10
0 -23 7 -30 15 -7 8 -20 15 -29 15 -23 0 -66 47 -83 90 -12 29 -12 40 1 76 23
63 61 79 182 78 94 -2 99 -3 151 -37 30 -20 72 -61 93 -92 39 -54 41 -55 85
-53 l45 3 -3 48 c-2 27 -8 61 -14 75 -6 15 -14 49 -17 76 -8 68 -40 87 -170
97 -53 5 -112 11 -131 14 -19 4 -38 4 -42 0z"/>
</g>
</svg>
