<?xml version="1.0" standalone="no"?>
<!DOCTYPE svg PUBLIC "-//W3C//DTD SVG 20010904//EN"
 "http://www.w3.org/TR/2001/REC-SVG-20010904/DTD/svg10.dtd">
<svg version="1.0" xmlns="http://www.w3.org/2000/svg"
 width="855.000000pt" height="1110.000000pt" viewBox="0 0 855.000000 1110.000000"
 preserveAspectRatio="xMidYMid meet">
<metadata>
Created by potrace 1.10, written by Peter Selinger 2001-2011
</metadata>
<g transform="translate(0.000000,1110.000000) scale(0.100000,-0.100000)"
fill="#277ec7" stroke="none">
<path d="M5805 10300 c-44 -4 -137 -13 -207 -19 -121 -10 -231 -32 -271 -52
-10 -5 -22 -7 -27 -4 -5 3 -71 -10 -146 -30 -158 -41 -179 -42 -334 -16 -290
49 -561 50 -835 2 -74 -13 -193 -47 -208 -59 -7 -6 -28 -13 -47 -17 -32 -7
-61 -19 -225 -95 -102 -48 -129 -54 -165 -35 -17 9 -39 15 -48 13 -9 -1 -38 7
-64 20 -26 12 -55 22 -63 22 -9 0 -28 6 -43 13 -15 8 -54 19 -87 26 -33 6 -89
20 -125 31 -36 10 -78 21 -95 24 -16 3 -62 12 -102 21 -223 47 -739 70 -923
40 -203 -33 -227 -38 -280 -60 -30 -13 -81 -28 -112 -35 -32 -6 -58 -15 -58
-20 0 -5 -24 -16 -52 -24 -100 -29 -262 -125 -383 -226 -56 -48 -145 -135
-145 -144 0 -4 -22 -32 -49 -61 -40 -44 -156 -222 -170 -260 -2 -5 -11 -28
-21 -50 -45 -98 -90 -214 -90 -229 0 -9 -7 -33 -16 -54 -8 -20 -17 -55 -19
-77 -2 -22 -10 -65 -19 -96 -8 -30 -17 -84 -20 -120 -4 -35 -10 -91 -15 -124
-7 -56 -6 -494 2 -615 4 -63 9 -94 43 -275 46 -250 66 -360 71 -392 3 -18 9
-33 14 -33 9 0 18 -41 23 -105 1 -22 6 -47 9 -55 3 -8 8 -31 11 -50 9 -66 34
-162 45 -173 6 -6 11 -24 11 -40 0 -16 4 -46 9 -66 56 -222 115 -431 161 -571
15 -47 31 -100 35 -117 3 -18 11 -35 16 -38 5 -4 9 -17 9 -30 0 -13 6 -36 14
-52 8 -15 27 -68 42 -118 15 -49 43 -128 62 -175 18 -47 41 -105 49 -130 8
-25 21 -52 28 -60 7 -8 29 -60 50 -115 20 -55 57 -140 82 -190 25 -49 55 -109
67 -133 12 -24 31 -53 43 -64 13 -12 23 -28 23 -35 0 -19 48 -93 60 -93 6 0
10 -7 10 -16 0 -38 270 -344 304 -344 5 0 27 -15 50 -33 85 -69 221 -117 334
-117 74 0 272 45 272 62 0 7 46 40 114 81 16 10 48 34 70 53 22 19 45 34 51
34 7 0 38 -31 71 -70 32 -38 65 -70 71 -70 7 0 19 -10 28 -23 20 -31 134 -91
231 -121 113 -36 315 -62 464 -60 121 2 273 23 315 43 11 6 39 15 63 21 23 6
42 14 42 19 0 7 119 51 139 51 17 0 20 -34 26 -283 7 -333 22 -622 41 -782 15
-130 50 -311 64 -330 4 -5 10 -24 13 -42 6 -28 56 -136 114 -244 71 -133 313
-369 377 -369 9 0 16 -4 16 -10 0 -5 12 -13 27 -16 15 -4 38 -13 52 -20 14 -8
33 -14 42 -14 9 0 33 -7 53 -15 20 -9 41 -13 47 -9 5 3 16 0 24 -6 23 -19 295
-22 353 -4 26 7 66 14 90 14 23 0 42 4 42 9 0 5 26 12 57 16 32 4 70 13 85 21
15 8 35 14 45 14 50 0 220 84 358 178 102 69 135 100 201 189 30 39 58 75 64
78 5 3 10 15 10 25 0 10 6 25 13 32 26 28 47 68 47 92 0 14 8 33 19 43 28 27
89 227 111 365 24 150 42 272 51 348 5 47 16 130 23 185 8 55 22 165 31 245 9
80 20 159 26 176 5 17 9 46 9 66 0 61 31 202 48 221 15 17 28 18 117 13 104
-7 357 17 520 48 175 33 440 140 558 225 132 95 297 241 297 263 0 6 14 26 30
45 21 24 29 41 25 54 -4 12 -1 21 9 25 17 7 32 115 22 168 -8 40 -79 136 -106
143 -10 3 -20 13 -23 23 -6 23 -105 60 -177 67 -37 3 -127 -7 -270 -31 -300
-49 -468 -50 -486 -2 -3 8 2 28 11 45 9 18 13 36 10 41 -3 5 1 12 9 17 7 4 35
49 61 98 26 50 52 97 59 105 7 8 33 53 58 100 25 47 55 101 67 120 11 19 25
46 31 60 18 42 32 74 41 90 24 45 63 128 109 235 28 66 55 125 60 130 4 6 11
21 15 35 9 32 73 188 90 220 7 14 25 61 39 105 15 44 33 94 41 112 8 17 15 37
15 44 0 6 13 48 29 93 17 45 44 128 61 186 17 58 38 128 47 155 31 99 100 377
101 410 0 11 9 63 20 115 35 161 43 246 51 508 10 297 5 352 -42 532 -20 78
-69 175 -137 271 -26 36 -170 199 -200 226 -8 8 -42 38 -75 68 -33 30 -63 55
-67 55 -4 0 -30 20 -58 45 -28 25 -57 45 -65 45 -8 0 -18 8 -23 17 -16 28
-205 136 -342 195 -36 16 -81 37 -100 47 -45 23 -175 65 -270 85 -78 18 -118
27 -185 45 -147 39 -514 60 -700 41z m420 -130 c94 -7 190 -18 214 -26 25 -8
61 -14 80 -14 20 -1 47 -7 61 -15 14 -8 38 -14 53 -15 16 0 38 -5 50 -12 12
-6 38 -15 57 -19 47 -10 99 -28 203 -73 17 -8 39 -17 47 -20 8 -3 22 -10 30
-15 42 -24 79 -41 89 -41 6 0 30 -12 54 -27 23 -15 58 -36 77 -46 57 -31 151
-96 210 -146 30 -25 76 -63 103 -84 26 -21 79 -75 119 -120 39 -45 91 -104
115 -131 53 -58 103 -161 133 -276 39 -148 39 -615 0 -825 -5 -27 -19 -99 -30
-160 -11 -60 -25 -128 -30 -150 -5 -22 -19 -80 -30 -130 -12 -49 -24 -101 -29
-115 -4 -14 -15 -51 -24 -83 -41 -144 -50 -174 -62 -207 -29 -82 -37 -107 -45
-135 -5 -16 -18 -55 -30 -85 -12 -30 -24 -67 -27 -82 -3 -15 -11 -33 -19 -39
-8 -6 -14 -23 -14 -36 0 -14 -6 -37 -14 -51 -8 -15 -22 -47 -31 -72 -10 -25
-23 -58 -30 -75 -7 -16 -21 -50 -31 -75 -9 -25 -34 -81 -54 -125 -21 -44 -41
-91 -45 -105 -16 -53 -242 -501 -264 -523 -6 -6 -11 -19 -11 -29 0 -9 -6 -21
-13 -25 -6 -4 -22 -28 -35 -53 -13 -25 -32 -58 -42 -75 -11 -16 -24 -39 -30
-50 -11 -21 -18 -34 -62 -103 -16 -24 -28 -46 -28 -50 0 -4 -21 -31 -46 -60
-44 -50 -45 -54 -30 -71 9 -10 47 -27 84 -37 56 -16 101 -19 272 -19 201 0
272 7 415 42 102 24 247 29 297 9 57 -22 83 -45 102 -91 18 -42 21 -101 6
-110 -5 -3 -10 -14 -10 -23 0 -9 -22 -47 -49 -83 -110 -149 -445 -358 -641
-398 -19 -4 -45 -13 -57 -19 -12 -7 -34 -12 -48 -12 -15 0 -54 -7 -88 -15 -67
-15 -334 -45 -406 -45 -60 0 -197 26 -288 55 -23 7 -23 6 -23 -88 0 -52 -7
-131 -15 -174 -8 -43 -15 -99 -15 -125 0 -25 -7 -82 -15 -125 -8 -43 -15 -98
-15 -123 -1 -25 -7 -74 -15 -110 -8 -36 -15 -87 -15 -115 0 -27 -5 -68 -10
-90 -6 -22 -14 -80 -20 -130 -16 -149 -53 -377 -76 -475 -65 -267 -176 -455
-339 -576 -41 -30 -76 -54 -79 -54 -3 0 -27 -13 -53 -28 -92 -53 -213 -100
-318 -122 -22 -4 -53 -13 -70 -18 -61 -22 -213 -42 -313 -42 -104 0 -211 19
-264 46 -14 8 -35 14 -46 14 -11 0 -25 7 -32 15 -7 8 -21 15 -31 15 -10 0 -21
5 -24 10 -4 6 -21 16 -38 24 -18 7 -72 54 -122 103 -85 85 -120 132 -146 196
-6 15 -15 27 -20 27 -5 0 -9 8 -9 18 0 10 -7 27 -15 38 -8 10 -15 26 -15 35 0
8 -5 20 -12 27 -15 15 -38 77 -48 132 -5 25 -13 63 -19 85 -12 49 -33 208 -37
295 -2 36 -11 173 -20 306 -12 173 -15 337 -12 583 4 356 1 376 -37 317 -42
-64 -219 -167 -370 -216 -97 -32 -107 -33 -303 -37 -159 -4 -219 -2 -275 10
-40 9 -98 21 -130 27 -68 14 -218 86 -263 127 -59 55 -84 103 -84 161 0 63 16
98 65 141 78 68 120 86 305 132 41 10 84 19 94 19 11 0 33 4 50 9 17 5 63 19
103 31 115 35 155 67 302 241 32 38 40 68 19 70 -7 1 -47 2 -88 4 -41 1 -102
9 -135 17 -65 16 -190 71 -200 88 -15 24 -46 7 -93 -53 -28 -35 -85 -102 -128
-148 -43 -46 -93 -100 -110 -119 -147 -164 -228 -256 -279 -319 -33 -41 -98
-113 -145 -160 -69 -70 -102 -95 -174 -130 -87 -43 -91 -44 -190 -45 -94 -1
-171 13 -202 36 -6 5 -30 18 -52 31 -69 37 -157 112 -211 179 -29 35 -61 74
-73 88 -72 85 -248 399 -325 577 -7 18 -20 48 -29 68 -39 92 -48 111 -57 129
-5 11 -13 31 -17 45 -5 14 -18 51 -30 81 -85 222 -208 608 -270 850 -12 47
-28 110 -36 140 -25 94 -44 173 -53 215 -4 22 -13 58 -18 80 -22 81 -36 141
-44 185 -4 25 -13 65 -19 90 -25 98 -33 137 -40 185 -4 28 -12 70 -18 95 -20
84 -33 155 -42 230 -4 41 -12 86 -18 100 -5 14 -15 117 -21 230 -17 277 6 605
54 775 8 28 16 61 19 75 4 24 10 43 42 133 51 140 93 225 172 353 50 81 191
233 258 278 62 42 107 74 134 93 14 11 45 27 70 38 25 10 52 25 61 32 8 7 22
13 30 13 9 0 24 7 35 15 10 8 27 15 37 15 11 0 31 6 45 14 41 20 92 37 142 46
25 5 58 13 73 19 16 6 47 11 70 11 23 0 67 7 97 15 78 21 516 21 615 0 39 -8
96 -15 128 -15 32 0 74 -7 94 -15 19 -8 52 -15 73 -15 21 0 57 -7 80 -15 23
-8 56 -15 72 -15 16 0 38 -5 49 -11 11 -6 41 -14 67 -19 26 -4 61 -13 77 -18
17 -6 57 -18 90 -28 91 -26 144 -44 213 -72 l63 -25 27 21 c15 12 53 34 85 49
31 15 57 31 57 35 0 4 8 8 19 8 10 0 24 7 31 15 7 8 20 15 29 15 10 0 26 7 37
15 10 8 27 15 36 15 10 0 32 6 50 14 60 25 133 46 159 46 15 0 42 6 60 14 19
7 110 19 202 25 188 14 496 0 575 -25 23 -8 60 -14 80 -14 21 0 47 -7 58 -15
21 -16 85 -20 99 -6 6 6 28 14 50 20 38 9 64 17 138 42 17 6 55 15 82 19 28 4
70 12 95 18 101 24 162 33 305 43 83 5 184 13 225 18 41 4 89 6 105 5 17 -2
107 -8 200 -14z m-2967 -4896 c34 -22 39 -44 13 -65 -25 -21 -131 -54 -203
-64 -44 -7 -48 -5 -48 13 0 11 6 22 13 25 8 3 20 19 28 36 9 17 31 42 50 55
28 21 42 24 79 20 25 -3 55 -12 68 -20z"/>
<path d="M5795 9945 c-17 -7 -309 -35 -358 -35 -28 0 -52 -6 -61 -16 -21 -20
-14 -31 27 -39 74 -16 223 -96 392 -211 201 -137 495 -434 652 -659 56 -80
161 -252 210 -345 43 -81 113 -238 113 -253 0 -5 6 -23 14 -40 41 -96 49 -149
47 -321 -1 -93 -4 -172 -6 -176 -5 -7 -23 -147 -51 -385 -16 -135 -13 -362 6
-510 39 -294 47 -599 21 -745 -23 -124 -83 -283 -160 -418 -18 -34 2 -72 38
-72 22 0 29 8 45 48 11 26 30 63 42 83 119 191 361 668 468 919 43 102 83 194
88 205 6 11 15 33 19 50 4 16 14 48 23 70 133 352 268 831 305 1080 4 28 13
77 19 110 58 311 55 648 -9 825 -45 127 -298 383 -529 535 -296 195 -716 306
-1155 304 -104 0 -194 -2 -200 -4z m93 -86 c24 1 42 -3 42 -9 0 -15 27 -12 33
3 4 10 21 12 73 6 38 -4 92 -5 121 -2 37 4 62 1 87 -11 20 -9 50 -16 68 -15
18 1 38 0 43 -1 6 -2 18 0 28 4 9 5 29 5 45 0 15 -4 34 -6 44 -5 22 3 34 -19
17 -30 -26 -15 1 -22 40 -9 28 9 43 9 59 1 11 -6 34 -11 50 -11 16 0 35 -6 41
-14 7 -8 27 -18 44 -21 18 -4 46 -18 64 -31 22 -16 43 -23 65 -22 28 3 34 -1
36 -19 3 -18 10 -23 31 -23 15 0 47 -14 70 -30 23 -17 46 -28 50 -25 5 3 32
-13 60 -35 28 -22 55 -40 60 -40 5 0 16 -11 25 -25 12 -18 23 -24 35 -20 12 3
27 -6 47 -30 16 -19 33 -35 39 -35 19 -1 116 -101 127 -131 6 -17 17 -29 28
-29 21 0 75 -58 85 -91 4 -13 14 -29 21 -37 8 -7 14 -22 14 -32 0 -10 4 -21 9
-24 4 -3 11 -27 14 -53 3 -26 11 -52 18 -57 11 -9 14 -55 12 -221 -1 -116 -4
-217 -7 -225 -2 -8 -12 -73 -21 -145 -9 -71 -20 -139 -25 -150 -5 -11 -9 -35
-9 -54 0 -19 -5 -47 -12 -63 -7 -17 -10 -52 -6 -87 4 -49 2 -61 -14 -75 -10
-9 -19 -27 -19 -41 0 -14 -3 -25 -8 -25 -8 0 -34 -92 -36 -130 -1 -14 -9 -36
-18 -50 -9 -14 -20 -49 -24 -79 -4 -30 -13 -66 -20 -80 -8 -14 -14 -38 -14
-53 0 -16 -4 -28 -8 -28 -15 0 -42 -76 -42 -117 0 -23 -6 -46 -14 -52 -8 -7
-17 -34 -21 -61 -4 -27 -13 -54 -21 -61 -8 -6 -14 -27 -14 -45 0 -27 -5 -37
-25 -46 -16 -7 -24 -17 -20 -26 3 -7 -4 -25 -15 -39 -11 -14 -20 -33 -20 -43
0 -9 -14 -50 -31 -91 -17 -41 -35 -92 -40 -113 -6 -21 -21 -52 -34 -68 -14
-16 -25 -38 -25 -47 0 -10 -9 -30 -20 -44 -11 -14 -20 -31 -20 -39 0 -7 -9
-28 -20 -46 -11 -18 -20 -39 -20 -47 0 -8 -7 -15 -15 -15 -8 0 -19 -9 -26 -21
-21 -40 -31 -2 -34 135 -2 113 -6 140 -20 156 -17 18 -17 21 0 46 12 19 14 29
6 37 -6 6 -11 29 -11 51 0 23 -3 65 -7 95 -5 43 -8 51 -17 38 -9 -11 -11 48
-11 240 1 188 5 257 14 262 8 5 13 42 14 107 1 54 5 104 9 109 9 15 28 153 29
220 1 33 5 82 10 109 5 26 6 53 2 59 -4 7 -6 27 -4 45 1 18 -3 39 -9 47 -6 8
-9 19 -5 25 4 6 0 22 -9 35 -9 13 -16 42 -16 65 0 28 -6 45 -20 57 -11 9 -15
20 -10 23 14 9 -11 70 -28 70 -9 0 -12 6 -8 17 10 24 -23 112 -45 124 -17 9
-18 13 -8 26 11 12 11 17 -2 27 -14 10 -139 227 -139 241 0 3 -11 16 -25 29
-14 13 -25 30 -25 39 0 9 -9 21 -20 27 -11 6 -20 18 -20 26 0 9 -14 29 -31 46
-19 20 -29 38 -26 50 3 10 0 18 -5 18 -15 0 -78 62 -78 77 0 7 -18 31 -40 55
-22 24 -70 74 -105 112 -36 38 -65 73 -65 78 0 4 -12 14 -27 22 -16 9 -57 43
-93 77 -36 34 -80 68 -97 75 -18 8 -33 19 -33 24 0 6 -6 10 -14 10 -8 0 -18 9
-21 20 -3 11 -13 20 -21 20 -8 0 -29 15 -47 33 -18 17 -45 38 -61 45 -22 10
-26 15 -17 26 8 10 9 16 1 21 -16 10 -12 33 8 38 9 3 31 2 47 -1 17 -3 49 -4
73 -3z"/>
<path d="M4205 9854 c-184 -17 -401 -77 -522 -145 -21 -12 -56 -31 -78 -42
-22 -12 -44 -25 -50 -30 -5 -4 -39 -29 -75 -56 -86 -63 -222 -208 -287 -303
-173 -255 -304 -598 -367 -963 -50 -284 -54 -325 -37 -325 6 0 30 14 55 30 24
17 71 42 103 56 32 14 66 29 75 35 10 5 24 9 33 9 8 0 29 6 47 14 40 17 120
40 209 61 92 21 327 21 394 -1 140 -46 212 -90 283 -172 102 -118 140 -223
187 -507 9 -55 20 -125 25 -155 5 -30 15 -137 21 -237 15 -248 -5 -504 -52
-668 -41 -144 -69 -222 -112 -315 -82 -177 -101 -218 -108 -240 -4 -14 -17
-50 -29 -80 -12 -30 -25 -68 -30 -85 -7 -27 -21 -64 -61 -161 -18 -45 -6 -68
29 -59 56 16 136 10 187 -15 142 -68 227 -170 274 -327 19 -64 20 -83 13 -353
-4 -157 -7 -379 -6 -495 3 -229 24 -846 30 -856 2 -3 8 -57 14 -120 15 -161
34 -253 70 -337 144 -339 330 -452 690 -418 88 8 223 40 350 83 131 45 259
136 337 241 96 129 146 274 188 542 9 58 21 134 27 170 6 36 14 99 18 140 4
41 13 107 19 145 17 113 32 234 41 320 4 44 12 116 18 160 31 219 47 388 61
625 13 221 40 301 138 398 57 57 120 91 170 92 23 0 33 6 38 21 5 15 -5 32
-42 72 -94 99 -174 220 -251 377 -41 85 -90 180 -108 210 -50 87 -100 178
-144 265 -51 99 -54 105 -68 130 -7 11 -15 27 -18 35 -3 8 -10 22 -15 30 -5 8
-12 22 -15 30 -4 8 -24 51 -45 95 -41 88 -119 285 -144 367 -73 236 -103 482
-74 605 34 143 66 209 143 291 111 119 252 181 456 203 95 11 305 6 347 -6 16
-5 25 -3 29 8 5 14 -48 137 -106 247 -89 170 -112 209 -190 323 -146 214 -238
323 -385 454 -129 116 -325 261 -420 313 -22 11 -47 25 -55 30 -38 22 -210
100 -222 100 -8 0 -18 4 -23 8 -30 26 -279 89 -485 122 -73 12 -415 22 -495
14z m90 -95 c6 1 63 5 129 8 86 3 121 2 126 -7 5 -8 38 -12 96 -12 59 0 97 -5
111 -14 28 -18 33 -18 33 1 0 19 9 19 24 1 16 -20 113 -48 175 -52 37 -2 58
-8 64 -19 6 -12 17 -14 38 -10 21 5 29 3 29 -7 0 -13 106 -59 149 -64 12 -1
33 -11 45 -22 11 -12 33 -24 49 -27 15 -4 31 -13 35 -20 4 -7 23 -20 42 -29
63 -30 80 -41 80 -48 0 -5 7 -8 17 -8 18 0 56 -27 117 -84 23 -20 50 -36 64
-36 18 0 22 -4 17 -19 -4 -14 1 -21 22 -29 25 -9 216 -192 270 -259 13 -16 36
-43 53 -62 16 -19 30 -38 30 -42 0 -4 14 -23 30 -41 17 -18 30 -38 30 -45 0
-6 12 -21 26 -32 14 -11 24 -26 21 -33 -2 -7 9 -28 27 -46 29 -31 75 -102 96
-150 5 -12 16 -25 23 -28 8 -3 12 -14 10 -28 -3 -13 7 -43 22 -70 28 -50 23
-76 -16 -76 -10 0 -21 -4 -24 -10 -3 -5 -15 -10 -26 -10 -14 0 -19 7 -19 25 0
32 -6 32 -37 -5 -14 -17 -30 -27 -36 -23 -17 10 -140 4 -151 -8 -6 -5 -22 -9
-37 -9 -15 0 -31 -4 -34 -10 -3 -5 -16 -10 -28 -10 -31 0 -157 -62 -198 -97
-19 -16 -42 -32 -51 -36 -10 -4 -18 -13 -18 -22 0 -8 -4 -15 -9 -15 -6 0 -18
-13 -28 -30 -9 -16 -23 -30 -29 -30 -13 0 -54 -64 -54 -84 0 -7 -9 -25 -20
-39 -12 -15 -24 -49 -27 -77 -3 -30 -11 -50 -18 -50 -20 0 -21 -14 -19 -198 1
-144 4 -176 18 -191 18 -20 21 -47 5 -57 -8 -4 -8 -9 0 -17 6 -6 11 -20 11
-31 0 -11 8 -28 17 -38 15 -17 15 -19 -2 -32 -12 -9 -15 -15 -7 -20 7 -4 12
-20 12 -36 0 -16 6 -35 13 -42 15 -16 37 -72 44 -111 3 -16 12 -31 19 -34 10
-4 13 -15 9 -37 -5 -24 -2 -36 14 -50 12 -11 21 -31 21 -45 0 -21 50 -134 88
-201 32 -54 42 -82 42 -114 0 -29 4 -36 19 -36 14 0 21 -10 26 -37 3 -20 22
-55 41 -77 19 -22 32 -46 29 -53 -2 -8 13 -39 35 -71 22 -31 40 -62 40 -68 0
-7 25 -52 55 -101 30 -50 55 -95 55 -102 0 -6 4 -19 10 -29 5 -9 21 -42 35
-72 31 -69 45 -91 68 -108 9 -7 17 -22 17 -33 0 -10 4 -19 10 -19 5 0 18 -20
29 -45 11 -25 27 -45 35 -45 22 0 30 -19 15 -36 -9 -11 -9 -18 -1 -26 21 -21
13 -37 -23 -52 -25 -11 -35 -21 -35 -36 0 -14 -8 -24 -20 -27 -12 -3 -27 -20
-35 -37 -8 -17 -30 -51 -49 -76 -28 -37 -34 -51 -29 -77 4 -25 2 -33 -10 -33
-17 0 -28 -55 -20 -105 4 -28 2 -35 -11 -35 -21 0 -21 -26 0 -34 13 -5 14 -9
4 -21 -9 -10 -11 -32 -7 -67 4 -28 2 -57 -3 -63 -5 -6 -11 -46 -14 -88 -2 -43
-9 -84 -15 -90 -5 -7 -12 -79 -15 -159 -2 -81 -9 -155 -14 -165 -6 -10 -13
-56 -16 -103 -3 -47 -10 -107 -15 -135 -6 -27 -10 -61 -10 -75 1 -14 -4 -61
-10 -105 -7 -44 -16 -109 -20 -145 -15 -110 -41 -262 -47 -272 -3 -5 -10 -44
-14 -86 -5 -42 -14 -99 -19 -127 -6 -27 -15 -75 -20 -106 -5 -31 -14 -65 -19
-75 -6 -10 -18 -45 -27 -76 -9 -31 -23 -62 -31 -69 -8 -6 -14 -15 -14 -20 0
-11 -22 -37 -76 -92 -22 -23 -43 -50 -47 -59 -3 -10 -15 -18 -25 -18 -10 0
-24 -11 -30 -25 -8 -17 -20 -25 -37 -25 -14 0 -28 -7 -31 -15 -4 -8 -16 -15
-28 -15 -12 0 -39 -9 -61 -20 -22 -11 -51 -20 -65 -20 -14 0 -38 -7 -54 -15
-16 -8 -47 -18 -70 -21 -22 -4 -46 -10 -52 -15 -12 -10 -147 -14 -162 -5 -6 3
-29 2 -51 -3 -43 -9 -140 7 -166 29 -7 6 -19 10 -27 9 -29 -3 -38 2 -38 22 0
16 -5 20 -19 16 -28 -7 -63 20 -59 46 2 17 -4 24 -30 32 -24 7 -31 13 -26 27
3 10 1 18 -5 18 -6 0 -11 5 -11 10 0 6 -13 29 -30 52 -16 22 -30 51 -30 63 0
13 -7 28 -15 35 -8 7 -15 23 -15 35 0 12 -7 28 -15 35 -8 7 -15 24 -15 39 0
14 -7 44 -14 66 -20 58 -23 144 -6 155 12 7 11 12 -3 28 -9 10 -17 31 -17 46
0 15 -5 37 -11 48 -8 14 -8 23 0 31 15 15 14 84 -1 90 -14 4 -20 226 -16 557
2 102 2 367 2 589 -1 361 -3 406 -18 416 -10 7 -16 27 -16 48 0 28 -3 35 -15
31 -12 -5 -15 2 -15 31 0 29 -9 49 -37 84 -57 68 -118 131 -130 131 -5 0 -18
9 -27 19 -10 11 -37 25 -61 32 -28 8 -48 22 -60 41 -13 22 -21 27 -41 22 -23
-6 -24 -4 -24 38 0 27 10 65 26 97 14 29 24 63 22 75 -1 12 8 38 20 57 12 20
22 44 22 53 0 9 14 35 30 58 17 22 30 53 30 67 0 14 7 35 15 45 8 11 15 32 15
48 0 15 4 28 9 28 12 0 51 103 51 132 0 12 6 29 14 37 7 9 23 45 35 80 20 58
21 70 10 143 -6 43 -9 82 -5 85 3 4 6 -5 6 -20 0 -30 16 -45 22 -19 9 36 -2
639 -12 666 -5 15 -10 69 -10 121 0 91 -11 125 -31 94 -12 -19 -11 -3 2 42 9
29 9 42 0 53 -8 9 -10 28 -6 48 5 25 2 38 -9 47 -12 10 -13 17 -4 31 9 14 8
21 -4 34 -9 9 -19 30 -23 48 -12 58 -16 68 -31 68 -8 0 -14 8 -14 18 0 29 -55
133 -89 170 -17 18 -31 42 -31 53 0 21 -20 25 -38 7 -9 -9 -12 -7 -12 10 0 13
-6 22 -15 22 -8 0 -15 9 -15 20 0 12 -7 20 -17 20 -10 0 -36 12 -58 25 -22 14
-49 25 -60 25 -11 0 -29 6 -40 14 -11 7 -42 17 -70 21 -27 4 -56 11 -62 17 -7
6 -20 8 -29 4 -8 -3 -24 -1 -34 4 -14 7 -32 6 -64 -5 -35 -12 -51 -13 -67 -5
-24 13 -117 4 -166 -16 -18 -8 -52 -14 -77 -14 -25 0 -48 -4 -51 -10 -3 -5
-18 -10 -32 -10 -13 0 -39 -7 -56 -16 -60 -32 -67 -34 -92 -34 -14 0 -28 7
-31 15 -4 8 -13 15 -21 15 -12 0 -14 13 -9 78 10 121 16 161 27 167 5 4 9 19
9 34 0 15 11 49 25 75 14 26 25 55 25 64 0 10 6 26 13 37 8 11 19 52 26 92 7
40 19 77 27 84 8 6 14 19 14 28 0 9 7 27 16 39 8 12 12 27 8 33 -3 6 3 17 14
25 11 7 23 25 26 39 4 14 11 25 16 25 5 0 16 15 25 33 8 17 19 39 23 47 5 8
16 28 24 43 8 15 28 45 46 65 17 20 46 57 64 82 18 24 58 64 88 89 30 24 56
53 58 63 3 17 39 39 67 42 6 1 17 7 25 14 8 7 33 28 55 47 21 19 53 37 69 41
17 4 58 21 91 40 72 38 174 67 209 58 13 -3 37 1 52 9 16 8 58 18 94 21 36 4
72 11 80 16 8 6 22 7 30 4 8 -4 20 -6 25 -5z"/>
<path d="M1837 9829 c-327 -29 -626 -166 -812 -373 -233 -259 -339 -615 -340
-1136 0 -225 10 -344 45 -535 5 -27 16 -90 25 -140 24 -131 45 -232 61 -297 8
-32 14 -67 14 -79 0 -12 6 -45 14 -73 16 -56 34 -131 46 -186 10 -45 28 -121
45 -185 45 -170 46 -173 90 -325 32 -112 49 -168 60 -200 7 -19 27 -80 45
-135 96 -298 197 -560 302 -785 16 -36 34 -72 39 -80 4 -8 20 -37 34 -65 14
-27 34 -63 45 -80 11 -16 24 -39 30 -50 54 -107 219 -290 310 -345 43 -26 69
-34 121 -38 59 -4 74 -1 122 23 73 37 136 96 256 241 14 16 56 65 94 109 38
44 93 107 121 140 153 178 302 335 319 335 4 0 7 14 7 30 0 17 -4 30 -9 30
-19 0 -117 99 -172 172 -158 214 -244 505 -225 767 4 53 11 134 16 181 29 293
32 383 24 645 -18 542 -5 763 65 1101 88 426 292 843 529 1082 28 29 52 59 52
67 0 8 -17 19 -42 25 -24 6 -65 17 -93 25 -27 8 -61 16 -75 19 -58 12 -127 28
-160 38 -74 23 -230 49 -430 72 -142 17 -419 19 -573 5z m442 -90 c27 -6 47
-6 55 0 17 14 116 2 134 -16 13 -12 31 -14 88 -10 49 4 74 2 77 -6 4 -14 108
-38 232 -53 28 -3 58 -13 67 -21 9 -8 22 -12 27 -8 6 3 11 -1 11 -9 0 -9 7
-16 15 -16 8 0 15 -4 15 -9 0 -5 3 -16 6 -25 4 -12 0 -16 -16 -16 -17 0 -20
-4 -15 -20 5 -15 -2 -27 -24 -46 -17 -14 -31 -30 -31 -36 0 -6 -13 -27 -29
-47 -16 -20 -41 -58 -55 -86 -15 -27 -38 -69 -50 -91 -13 -23 -29 -62 -37 -88
-7 -25 -17 -46 -21 -46 -4 0 -8 -6 -8 -14 0 -7 -8 -24 -18 -37 -10 -13 -24
-44 -31 -69 -7 -25 -17 -52 -21 -61 -5 -9 -12 -34 -15 -55 -4 -22 -10 -48 -14
-59 -5 -11 -17 -44 -29 -72 -11 -29 -18 -62 -15 -73 3 -12 -2 -29 -11 -39 -13
-14 -18 -38 -18 -86 -1 -36 -6 -69 -12 -73 -23 -15 -33 -47 -24 -74 6 -18 6
-34 -2 -47 -6 -12 -8 -26 -5 -31 3 -5 1 -20 -6 -32 -7 -12 -13 -54 -15 -93 -1
-38 -9 -82 -16 -97 -15 -28 -17 -215 -3 -298 4 -26 3 -46 -5 -55 -9 -11 -9
-23 -1 -47 9 -30 12 -114 8 -333 0 -38 0 -92 1 -120 3 -80 -5 -273 -16 -360
-5 -45 -6 -84 -1 -89 14 -15 10 -46 -5 -46 -19 0 -23 -66 -16 -258 5 -116 10
-166 19 -172 9 -5 11 -18 6 -39 -5 -22 -2 -39 9 -56 9 -13 16 -35 16 -49 0
-13 7 -37 15 -52 8 -16 15 -38 15 -50 0 -11 9 -29 20 -39 11 -10 20 -31 20
-46 0 -15 5 -31 10 -34 6 -3 10 -18 10 -33 0 -34 10 -49 35 -53 12 -3 21 -14
23 -27 2 -12 17 -35 33 -51 16 -16 29 -35 29 -43 0 -7 20 -35 45 -63 29 -32
41 -53 35 -59 -6 -6 -10 -20 -10 -33 0 -12 -8 -27 -19 -32 -10 -6 -21 -21 -25
-33 -3 -13 -22 -34 -41 -47 -20 -13 -46 -38 -57 -55 -12 -17 -44 -56 -72 -87
-28 -31 -66 -75 -84 -97 -18 -23 -40 -42 -48 -42 -8 0 -14 -10 -15 -22 0 -15
-20 -39 -54 -68 -32 -28 -52 -51 -49 -61 2 -9 -9 -25 -26 -37 -16 -13 -30 -28
-30 -34 0 -15 -48 -58 -65 -58 -8 0 -18 -6 -22 -14 -4 -7 -36 -23 -71 -35 -59
-21 -65 -22 -116 -7 -35 11 -63 26 -79 46 -14 17 -33 30 -41 30 -9 0 -16 7
-16 15 0 8 -5 15 -10 15 -6 0 -15 11 -21 24 -6 13 -20 27 -31 29 -15 4 -17 11
-12 31 5 20 2 28 -14 33 -26 10 -69 63 -77 94 -3 14 -21 42 -39 63 -19 20 -42
58 -51 84 -10 26 -22 51 -26 57 -5 5 -9 19 -9 31 0 12 -4 24 -8 26 -15 6 -52
75 -52 97 0 12 -7 24 -15 27 -8 4 -15 16 -15 28 0 12 -9 32 -20 44 -11 12 -20
31 -20 43 0 12 -7 27 -16 34 -9 6 -18 29 -20 50 -2 21 -15 55 -29 75 -14 20
-23 44 -20 52 3 8 -1 28 -10 44 -8 16 -15 34 -15 40 0 7 -7 25 -15 40 -8 16
-15 38 -15 49 0 11 -9 34 -20 50 -11 17 -20 40 -20 53 0 12 -9 40 -20 62 -11
22 -20 53 -20 70 0 17 -4 38 -9 48 -6 9 -13 33 -16 53 -3 21 -12 42 -20 49 -8
7 -15 25 -15 40 0 15 -7 33 -16 41 -10 8 -14 22 -10 39 2 15 -2 39 -10 54 -8
16 -14 36 -14 45 0 9 -6 25 -14 36 -8 11 -16 43 -19 70 -6 58 -36 189 -74 325
-8 30 -19 78 -23 105 -5 28 -14 68 -20 90 -7 22 -13 57 -14 77 -1 24 -8 43
-20 51 -16 12 -18 22 -12 65 6 44 4 53 -15 71 -18 16 -21 27 -16 57 4 26 0 48
-13 75 -13 24 -20 58 -20 92 0 29 -6 62 -14 72 -9 13 -12 37 -8 80 3 47 -1 76
-17 122 -18 52 -20 73 -15 147 4 47 11 86 15 86 12 0 11 113 0 126 -5 5 -12
28 -16 50 -5 31 -2 45 9 57 17 17 22 62 7 71 -5 3 -2 25 6 48 9 26 13 64 11
95 -3 39 -1 50 8 46 8 -3 15 6 19 24 3 15 14 57 23 93 9 36 16 73 14 83 -1 10
5 28 13 40 8 12 15 29 15 38 0 9 11 33 25 53 15 22 25 51 25 71 0 24 5 35 15
35 14 0 19 12 16 33 0 4 6 7 14 7 8 0 15 8 15 19 0 10 21 45 48 77 58 72 58
72 107 109 22 16 55 44 74 62 19 18 38 33 43 33 6 0 18 10 28 23 16 19 21 20
40 9 19 -12 22 -11 27 7 3 11 15 23 27 27 11 3 50 20 85 36 44 21 72 28 92 24
22 -4 31 -1 39 15 8 14 17 18 31 14 12 -4 21 -1 25 10 5 12 14 14 35 10 17 -4
41 0 61 9 39 18 69 20 298 23 96 1 195 -3 219 -8z"/>
<path d="M6140 8010 c-41 -11 -83 -24 -92 -29 -10 -6 -24 -11 -31 -11 -27 0
-124 -100 -153 -157 -28 -57 -29 -60 -28 -223 1 -134 5 -179 22 -240 22 -82
68 -223 82 -255 5 -11 19 -45 30 -75 12 -30 26 -64 30 -75 17 -40 241 -492
278 -560 21 -38 59 -106 84 -150 25 -44 61 -119 79 -167 24 -61 39 -87 49 -85
17 2 59 121 84 237 21 99 22 412 1 565 -58 428 -58 572 -3 870 6 33 14 94 19
135 4 41 13 106 19 143 8 49 9 72 1 81 -8 10 -59 13 -203 14 -156 0 -207 -3
-268 -18z m209 -108 c50 -25 59 -44 39 -84 -25 -54 -67 -97 -119 -123 -86 -44
-168 -27 -243 51 -43 44 -44 60 -10 97 62 67 253 101 333 59z m128 -158 c3 -9
-2 -32 -11 -51 -11 -24 -13 -39 -7 -47 14 -16 5 -181 -11 -208 -12 -21 -15
-231 -4 -338 1 -19 6 -82 11 -140 4 -58 13 -118 19 -135 7 -17 13 -95 14 -180
1 -82 4 -162 7 -176 6 -29 -22 -169 -34 -169 -12 0 -49 46 -70 88 -11 22 -32
54 -47 72 -21 25 -24 34 -14 40 10 6 6 16 -18 40 -18 17 -32 37 -32 45 0 7 -7
18 -15 25 -9 7 -20 33 -27 57 -6 24 -24 57 -39 73 -33 32 -35 42 -14 60 8 7
12 16 9 22 -3 5 -11 4 -19 -2 -20 -17 -32 -5 -33 31 0 17 -6 37 -11 42 -6 6
-11 17 -11 25 0 7 -14 34 -32 60 -23 34 -32 58 -33 91 -1 32 -9 58 -28 85 -15
21 -27 50 -27 64 0 13 -10 40 -22 60 -14 23 -21 50 -20 81 0 25 -4 51 -10 58
-15 19 -20 144 -6 171 9 17 9 25 0 34 -15 15 -16 55 -1 63 6 4 17 -2 25 -14 8
-12 20 -21 26 -21 6 0 19 -7 29 -16 12 -11 36 -16 75 -15 51 0 55 -1 38 -14
-16 -11 -16 -14 -4 -19 35 -12 56 -11 66 2 9 12 15 12 33 2 24 -12 17 -16 139
65 23 15 42 31 42 35 0 4 10 10 21 13 15 4 20 11 15 22 -3 9 -4 21 0 26 8 14
24 11 31 -7z"/>
<path d="M3490 7994 c-204 -19 -469 -106 -621 -202 -15 -9 -40 -26 -57 -36
-17 -11 -33 -25 -35 -30 -2 -6 0 -78 5 -161 13 -205 2 -706 -17 -815 -30 -168
-17 -441 26 -545 67 -164 65 -160 122 -247 44 -68 164 -191 227 -234 132 -90
278 -142 410 -147 l65 -2 6 40 c7 40 20 82 45 143 8 18 14 41 14 52 0 10 4 21
9 25 5 3 12 19 16 36 4 17 13 42 21 57 8 15 14 35 14 44 0 9 4 19 9 22 5 3 12
17 15 30 3 14 26 67 50 118 152 325 203 609 178 982 -19 275 -78 600 -126 694
-23 44 -89 107 -138 131 -49 24 -152 52 -183 49 -11 0 -36 -3 -55 -4z m135
-133 c78 -20 129 -43 163 -74 30 -28 30 -92 -1 -128 -61 -71 -132 -97 -228
-84 -43 6 -58 15 -113 68 -74 72 -93 114 -71 157 17 33 24 39 80 62 52 22 84
22 170 -1z m-341 -27 c4 -10 14 -14 26 -11 24 6 25 -1 5 -27 -19 -26 -19 -65
0 -72 8 -4 15 -13 15 -21 0 -8 5 -24 12 -36 7 -12 12 -31 12 -41 1 -21 26 -36
26 -15 0 8 7 6 20 -6 14 -13 17 -22 10 -30 -7 -9 -5 -17 7 -26 13 -11 17 -11
20 -1 3 6 12 12 20 12 10 0 13 -6 9 -16 -5 -14 -1 -15 28 -10 24 5 39 2 49 -9
9 -9 34 -15 59 -15 24 0 49 -4 57 -9 22 -14 44 -2 30 15 -9 12 -4 14 30 14 22
0 41 5 41 10 0 6 15 10 34 10 34 0 46 -13 46 -48 0 -9 11 -39 24 -66 19 -40
22 -53 13 -77 -8 -20 -8 -34 1 -51 7 -13 12 -39 12 -58 0 -19 3 -140 6 -268 3
-145 2 -238 -4 -245 -18 -22 -26 -88 -11 -97 10 -7 9 -16 -5 -49 -11 -23 -16
-50 -13 -63 4 -16 -2 -41 -19 -71 -13 -26 -20 -47 -14 -47 5 0 10 -5 10 -11 0
-5 -5 -7 -11 -3 -14 9 -29 -14 -29 -46 0 -14 -9 -36 -20 -50 -14 -19 -16 -28
-7 -39 9 -11 7 -17 -11 -29 -14 -9 -22 -25 -22 -41 0 -15 -7 -36 -15 -47 -8
-10 -15 -25 -15 -32 0 -8 -13 -26 -29 -42 -20 -21 -27 -36 -24 -53 3 -13 -5
-43 -16 -65 -12 -23 -21 -47 -21 -55 0 -7 -11 -24 -24 -37 -18 -16 -24 -30
-20 -49 7 -35 -31 -91 -78 -114 -34 -17 -39 -17 -60 -3 -12 9 -29 16 -38 16
-8 0 -28 7 -44 15 -15 8 -39 15 -52 15 -16 0 -22 4 -18 14 3 8 -4 17 -18 21
-13 4 -31 11 -40 14 -26 9 -146 112 -174 148 -14 18 -32 33 -40 33 -11 0 -13
7 -8 28 5 22 4 25 -7 15 -22 -22 -27 -15 -22 28 6 39 5 41 -17 34 -21 -7 -23
-5 -17 23 5 24 0 38 -23 68 -17 20 -30 46 -30 57 0 11 -6 28 -13 36 -16 18
-40 178 -30 194 4 6 8 70 9 142 1 71 7 182 13 245 6 63 11 259 11 435 0 176 5
337 9 359 10 41 55 96 80 96 8 0 22 6 30 14 9 7 48 26 86 41 39 15 81 36 94
46 30 24 96 26 105 3z m643 -1056 c-2 -13 -4 -3 -4 22 0 25 2 35 4 23 2 -13 2
-33 0 -45z"/>
<path d="M3446 7794 c-25 -22 -28 -29 -18 -45 7 -10 12 -24 12 -29 0 -6 16
-26 36 -44 44 -41 135 -67 165 -48 10 7 27 12 38 12 21 0 81 65 81 88 0 20
-50 62 -74 62 -12 0 -30 7 -40 15 -14 10 -44 15 -95 15 -67 -1 -79 -4 -105
-26z m208 -24 c5 -5 18 -10 27 -10 10 0 25 -10 34 -22 14 -21 14 -24 -7 -40
-33 -26 -78 -48 -98 -48 -26 0 -93 36 -123 66 -29 28 -35 59 -14 68 19 9 169
-2 181 -14z"/>
<path d="M6640 5334 c-106 -33 -126 -43 -159 -76 -27 -26 -42 -54 -54 -97 -17
-62 -22 -157 -9 -177 20 -30 88 -39 307 -39 212 0 336 12 450 45 202 57 273
88 431 193 92 60 134 100 116 110 -4 2 -38 -6 -77 -18 -126 -40 -243 -57 -425
-62 -277 -8 -404 18 -529 110 -25 18 -27 18 -51 11z m129 -154 c21 0 30 -6 34
-21 6 -22 7 -22 68 -3 11 4 18 -2 23 -18 6 -21 7 -22 20 -5 18 23 32 22 39 -3
4 -16 11 -19 30 -15 28 8 94 -22 81 -35 -5 -5 -32 -11 -59 -13 -28 -2 -59 -8
-70 -14 -48 -25 -96 -35 -110 -23 -10 8 -28 9 -57 4 -24 -4 -74 -6 -113 -5
-62 2 -72 5 -92 29 -12 15 -25 40 -29 56 -5 23 -1 33 22 52 19 16 38 23 54 20
15 -2 29 2 37 12 10 14 15 15 32 5 16 -10 22 -9 32 3 11 14 14 13 21 -5 5 -15
16 -21 37 -21z"/>
<path d="M3871 5303 c-28 -11 -74 -59 -139 -143 -114 -147 -164 -200 -224
-241 -33 -21 -65 -39 -71 -39 -7 0 -21 -6 -32 -14 -11 -7 -31 -16 -45 -19 -14
-3 -38 -10 -55 -15 -78 -27 -271 -72 -310 -72 -25 0 -92 -23 -106 -37 -7 -7
-6 -13 3 -20 22 -17 152 -63 178 -63 14 0 50 -7 80 -15 78 -21 323 -20 415 1
199 47 356 147 486 310 50 63 53 69 53 128 1 64 -16 113 -59 164 -43 52 -135
92 -174 75z m68 -124 c37 -13 40 -24 9 -34 -22 -7 -22 -7 -3 -12 30 -7 45 -32
45 -75 0 -32 -10 -49 -61 -108 -42 -50 -70 -73 -91 -77 -21 -4 -33 -14 -40
-34 -6 -17 -17 -29 -28 -29 -9 0 -29 -9 -43 -20 -14 -11 -35 -20 -46 -20 -12
0 -21 -4 -21 -9 0 -13 -36 -23 -120 -32 -41 -4 -90 -11 -107 -14 -34 -7 -47 7
-18 19 8 3 15 14 15 25 0 15 11 23 43 32 23 7 49 18 58 26 8 7 23 13 31 13 9
0 28 15 41 33 43 55 90 107 150 166 31 32 57 62 57 68 0 8 84 88 96 93 1 0 15
-5 33 -11z"/>
<path d="M5360 1519 c-67 -9 -132 -37 -163 -68 -6 -6 -18 -11 -26 -11 -9 0
-45 -32 -81 -71 l-65 -71 -59 28 c-106 48 -238 44 -372 -12 l-61 -26 -49 25
c-43 21 -67 25 -203 31 -152 6 -154 6 -196 -19 -54 -31 -65 -31 -129 0 -47 23
-64 25 -216 27 l-165 3 -69 -32 c-37 -18 -75 -33 -82 -33 -8 0 -51 35 -97 78
-105 101 -139 120 -202 120 -61 0 -94 -16 -163 -82 l-54 -51 -152 0 -151 0
-60 -33 c-33 -18 -77 -43 -97 -55 l-37 -21 -45 32 c-76 55 -129 73 -229 79
-78 4 -101 2 -152 -16 -119 -43 -115 -43 -140 -16 -12 14 -27 25 -34 25 -6 0
-11 6 -11 13 0 17 -80 91 -120 112 -76 39 -331 60 -425 34 -51 -14 -139 -100
-152 -149 -14 -51 -17 -548 -4 -596 12 -46 79 -116 131 -137 85 -35 199 8 250
92 48 79 79 110 116 117 19 3 40 12 47 19 7 6 29 14 50 18 31 5 37 3 37 -12 0
-38 149 -211 182 -211 6 0 19 -7 28 -15 10 -9 31 -17 48 -19 16 -3 40 -10 53
-16 47 -26 263 15 272 50 8 32 107 40 134 11 44 -46 97 -61 220 -63 l118 -3
97 48 c53 26 105 47 116 47 10 0 29 -12 43 -26 13 -14 38 -32 56 -39 51 -22
153 -34 186 -22 22 7 37 6 63 -6 19 -9 34 -22 34 -28 0 -22 63 -90 108 -117
42 -24 59 -27 152 -30 182 -7 256 27 376 171 l31 37 54 -9 c48 -8 67 -8 132
-3 28 3 127 108 134 143 3 16 10 32 14 35 5 3 9 15 9 27 0 16 18 1 81 -66 100
-108 164 -144 277 -157 93 -10 206 0 247 22 94 50 99 50 166 16 72 -35 182
-53 273 -44 71 7 181 42 216 68 14 11 42 32 64 49 21 16 43 29 48 29 5 0 42
-24 81 -53 40 -30 92 -65 116 -78 24 -13 67 -48 95 -77 74 -78 126 -101 240
-109 89 -6 97 -5 139 20 52 31 127 112 127 137 0 27 26 43 57 36 60 -14 320
-18 391 -6 65 11 77 16 118 58 25 25 50 57 56 71 14 37 0 119 -22 131 -10 6
-21 19 -25 30 -3 10 -25 33 -47 50 -33 24 -52 30 -90 30 -39 0 -54 5 -73 25
-24 23 -25 31 -25 137 -1 173 -11 229 -55 283 -52 63 -92 85 -154 85 -60 0
-97 -16 -144 -64 -19 -18 -46 -42 -62 -52 -24 -16 -29 -16 -39 -3 -21 29 -110
90 -123 85 -7 -3 -15 -1 -18 5 -23 36 -184 59 -275 40 -67 -14 -178 -68 -191
-93 -15 -28 -67 -22 -114 12 -62 46 -116 69 -191 80 -78 11 -97 11 -174 -1z
m259 -134 c30 -8 57 -18 62 -22 4 -4 9 -39 11 -78 3 -69 3 -70 -24 -73 -16 -2
-48 9 -82 28 -43 25 -72 33 -129 37 -92 7 -137 -11 -137 -56 0 -38 21 -53 89
-68 109 -23 136 -31 182 -51 91 -40 130 -117 108 -209 -24 -97 -96 -151 -232
-175 -69 -12 -212 1 -288 27 l-46 16 -7 75 c-4 41 -4 79 -1 84 12 19 51 10 92
-20 79 -58 235 -80 287 -39 28 22 35 60 14 76 -19 15 -77 34 -133 43 -104 17
-197 67 -230 123 -24 40 -24 137 0 174 37 58 111 107 188 123 55 12 207 4 276
-15z m659 -5 c69 -30 143 -111 167 -182 13 -36 18 -82 18 -143 0 -78 -4 -99
-30 -155 -32 -71 -73 -112 -140 -141 -34 -15 -43 -23 -43 -43 0 -39 39 -59 97
-52 27 4 64 8 83 9 l35 2 3 -55 c3 -52 1 -56 -27 -73 -62 -37 -244 -11 -298
43 -15 15 -34 49 -43 76 -16 51 -21 55 -112 69 -47 7 -129 73 -162 130 -38 64
-58 182 -45 263 21 137 96 227 223 268 64 21 209 13 274 -16z m502 13 c6 -5 1
-311 -6 -434 -5 -76 -4 -97 7 -101 8 -3 77 -2 153 3 101 6 143 5 153 -3 10 -8
13 -30 11 -72 l-3 -61 -249 1 -248 1 -1 332 c0 253 3 335 12 340 12 8 162 3
171 -6z m-5140 -20 c165 -73 172 -280 14 -389 -54 -37 -56 -38 -155 -39 -57
-1 -105 -7 -111 -13 -8 -8 -6 -35 5 -98 12 -64 13 -91 5 -101 -7 -9 -38 -13
-99 -13 -100 0 -114 9 -97 64 5 17 8 159 7 316 0 157 -1 289 0 294 1 5 84 7
194 4 162 -5 199 -9 237 -25z m1556 9 c19 -3 23 -27 13 -72 -5 -23 -7 -51 -3
-62 5 -17 12 -18 76 -12 79 8 88 2 88 -56 0 -51 -14 -60 -96 -60 l-73 0 1
-121 c1 -153 8 -164 100 -164 l63 0 3 -47 c3 -41 0 -49 -23 -64 -21 -14 -41
-16 -109 -12 -92 6 -141 25 -171 66 -18 24 -20 43 -21 181 l-1 154 -34 11
c-31 10 -34 14 -34 51 0 36 3 42 38 59 32 15 38 22 32 40 -3 11 -9 38 -12 58
-5 32 -2 39 15 45 18 7 111 9 148 5z m-974 -149 c61 -23 115 -69 140 -117 18
-34 22 -59 22 -141 1 -92 -1 -103 -26 -142 -50 -76 -112 -112 -207 -120 -165
-14 -277 60 -306 200 -16 79 0 166 42 229 43 65 133 108 224 108 40 0 86 -7
111 -17z m635 1 c26 -9 51 -19 54 -22 4 -4 10 -33 14 -65 8 -73 -6 -81 -76
-43 -40 21 -62 26 -122 26 -74 0 -97 -9 -97 -40 0 -22 61 -50 108 -50 47 0
134 -30 163 -56 54 -49 61 -116 17 -179 -55 -82 -188 -113 -357 -84 -98 17
-101 20 -101 88 0 83 13 91 84 51 70 -40 191 -54 219 -26 40 41 18 59 -95 79
-149 27 -207 84 -193 187 8 56 44 92 127 127 66 27 184 31 255 7z m877 -1 c30
-14 42 -14 74 -5 53 16 139 16 144 0 2 -7 2 -134 -1 -283 l-6 -270 -30 -41
c-54 -76 -198 -117 -333 -95 -121 19 -113 14 -110 84 3 62 3 62 33 61 17 -1
55 -9 85 -18 99 -29 210 14 210 81 0 28 -30 31 -83 8 -81 -34 -192 -8 -239 56
-45 60 -51 80 -51 174 0 82 3 97 28 139 61 105 186 154 279 109z m504 2 c6 -3
12 -14 12 -25 0 -30 27 -36 58 -13 15 11 51 28 80 38 47 17 54 18 68 4 12 -13
14 -29 7 -90 l-8 -74 -100 -5 -100 -5 4 -125 c3 -69 5 -145 5 -170 l1 -45 -89
0 -89 0 0 254 c0 183 3 255 12 260 11 7 113 4 139 -4z m678 -9 c70 -33 107
-83 129 -179 13 -56 15 -81 7 -89 -7 -7 -73 -10 -190 -9 -113 1 -183 -2 -187
-8 -10 -18 23 -68 60 -91 31 -19 47 -22 108 -18 46 3 87 13 114 26 23 12 51
22 63 22 18 0 20 -6 20 -57 0 -32 -4 -63 -8 -70 -15 -24 -151 -46 -241 -39
-116 9 -185 41 -237 109 l-39 51 0 96 c0 91 2 99 33 147 40 62 93 104 162 126
8 3 47 6 85 6 54 1 82 -5 121 -23z"/>
<path d="M6052 1263 c-65 -32 -102 -141 -87 -258 26 -208 263 -222 306 -18 14
71 0 183 -29 222 -49 66 -123 87 -190 54z m79 -206 c-1 -12 -15 -9 -19 4 -3 6
1 10 8 8 6 -3 11 -8 11 -12z"/>
<path d="M1398 1269 c-13 -7 -17 -24 -17 -82 0 -39 -1 -81 -3 -92 -3 -18 3
-20 62 -23 55 -2 71 1 100 20 64 43 61 122 -5 159 -37 21 -114 31 -137 18z"/>
<path d="M2053 1108 c-34 -38 -43 -64 -43 -126 0 -67 21 -126 49 -142 36 -19
100 -12 126 14 47 48 47 197 -2 248 -35 37 -99 40 -130 6z"/>
<path d="M3659 1110 c-21 -11 -42 -32 -49 -51 -27 -64 -6 -177 35 -193 29 -11
110 -7 128 7 13 10 16 33 18 121 2 96 0 110 -16 122 -26 19 -73 17 -116 -6z"/>
<path d="M4724 1130 c-23 -9 -54 -52 -54 -75 0 -13 15 -15 107 -13 124 3 138
15 85 68 -25 24 -39 30 -74 29 -24 0 -52 -4 -64 -9z"/>
</g>
</svg>
