<?xml version="1.0" standalone="no"?>
<!DOCTYPE svg PUBLIC "-//W3C//DTD SVG 20010904//EN"
 "http://www.w3.org/TR/2001/REC-SVG-20010904/DTD/svg10.dtd">
<svg version="1.0" xmlns="http://www.w3.org/2000/svg"
 width="580.000000pt" height="200.000000pt" viewBox="0 0 580.000000 200.000000"
 preserveAspectRatio="xMidYMid meet">
<metadata>
Created by potrace 1.10, written by Peter Selinger 2001-2011
</metadata>
<g transform="translate(0.000000,200.000000) scale(0.050000,-0.050000)"
fill="#00d4ff" stroke="none">
<path d="M934 3420 c-107 -85 -138 -290 -82 -545 10 -43 5 -55 -21 -55 -120 0
-367 -160 -420 -271 -78 -163 119 -390 395 -457 52 -12 55 -17 40 -88 -111
-523 184 -716 587 -383 l93 77 89 -78 c390 -344 715 -108 573 415 -9 33 -3 48
25 56 285 90 477 284 423 429 -42 114 -232 255 -391 289 -73 16 -72 13 -44
189 75 460 -228 607 -597 290 l-84 -71 -84 72 c-183 157 -398 213 -502 131z
m252 -92 c106 -53 253 -157 253 -178 -1 -93 -182 -239 -323 -263 -181 -31
-181 -30 -184 187 -3 269 72 345 254 254z m871 6 c52 -63 69 -415 21 -462 -51
-52 -305 46 -388 149 -112 139 -113 134 35 232 169 112 283 140 332 81z m-417
-398 c0 -9 -54 -16 -120 -16 -138 0 -138 0 -65 91 l54 68 66 -63 c36 -35 65
-71 65 -80z m116 -171 c22 -30 71 -112 109 -182 l70 -127 -101 -178 -102 -178
-212 0 -212 0 -104 178 -104 179 83 146 c129 226 114 217 339 217 190 0 196
-1 234 -55z m-580 20 c-52 -111 -107 -205 -118 -205 -28 0 -78 181 -52 189 13
4 38 12 54 18 48 16 124 14 116 -2z m868 -18 c16 -9 -42 -187 -61 -187 -13 1
-123 190 -123 212 0 12 158 -9 184 -25z m-1099 -174 l55 -147 -41 -98 c-23
-54 -49 -118 -59 -142 l-19 -45 -95 45 c-376 174 -392 316 -56 475 160 76 152
79 215 -88z m1373 78 c123 -62 242 -166 242 -212 0 -67 -293 -280 -384 -279
-14 0 -51 63 -82 139 l-57 139 55 141 c65 164 51 160 226 72z m-1168 -483 c20
-37 33 -72 28 -77 -19 -19 -200 34 -192 56 4 13 21 57 35 99 31 85 46 76 129
-78z m878 59 c18 -52 30 -96 27 -98 -19 -17 -195 -41 -195 -27 0 27 108 217
123 218 7 0 28 -42 45 -93z m-898 -226 c105 -14 142 -29 167 -65 18 -25 62
-79 98 -119 l66 -73 -76 -57 c-332 -252 -495 -183 -455 192 15 141 24 167 49
152 9 -6 77 -19 151 -30z m977 -113 c32 -255 -42 -388 -191 -347 -81 22 -316
172 -316 201 0 37 171 236 210 245 99 23 242 47 260 44 11 -2 28 -66 37 -143z
m-509 12 c-36 -44 -71 -80 -78 -80 -7 0 -42 36 -78 80 l-64 80 142 0 142 0
-64 -80z"/>
<path d="M1450 2649 c-254 -131 -99 -483 161 -365 148 68 137 289 -18 363 -83
40 -70 39 -143 2z"/>
<path d="M7428 2831 c-23 -58 2 -101 60 -108 73 -8 101 20 84 86 -15 58 -124
75 -144 22z"/>
<path d="M3140 2490 l0 -350 81 0 80 0 -13 125 -12 125 65 0 c61 0 70 -9 124
-125 l59 -125 86 0 87 0 -81 140 -81 139 63 59 c186 173 23 362 -313 362
l-145 0 0 -350z m343 197 c87 -79 13 -187 -127 -187 l-76 0 0 110 0 110 83 0
c50 0 99 -13 120 -33z"/>
<path d="M5890 2490 l0 -350 84 0 c59 0 82 8 77 25 -19 61 -30 415 -13 415 10
0 75 -99 145 -220 l127 -220 80 0 80 0 -4 345 -4 345 -76 6 -76 6 7 -176 c12
-326 11 -327 -145 -61 -135 231 -138 235 -210 235 l-72 0 0 -350z"/>
<path d="M5349 2783 c-5 -5 -9 -35 -9 -66 0 -44 -9 -57 -40 -57 -29 0 -40 -13
-40 -50 0 -37 11 -50 40 -50 37 0 40 -13 40 -179 0 -220 69 -302 208 -249 35
13 45 106 12 111 -11 1 -31 3 -45 5 -17 1 -27 51 -31 158 -6 153 -5 157 40
150 37 -5 46 3 46 44 0 36 -12 52 -44 56 -33 5 -45 22 -50 70 -6 60 -87 96
-127 57z"/>
<path d="M7129 2783 c-5 -5 -9 -34 -9 -64 0 -38 -12 -58 -40 -65 -24 -6 -40
-27 -40 -52 0 -29 13 -42 40 -42 37 0 40 -13 40 -171 0 -221 72 -309 208 -257
51 19 41 104 -13 112 -67 9 -82 316 -16 316 30 0 41 13 41 50 0 36 -11 50 -39
50 -29 0 -40 16 -45 65 -6 61 -87 97 -127 58z"/>
<path d="M3882 2645 c-133 -68 -183 -268 -101 -401 74 -122 252 -155 361 -66
59 47 39 113 -27 92 -110 -34 -157 -34 -196 1 -77 70 -51 89 121 89 l160 0 0
69 c0 184 -163 295 -318 216z m154 -116 c74 -52 54 -81 -56 -83 -106 -1 -122
17 -67 77 41 45 65 46 123 6z"/>
<path d="M4390 2650 c-67 -35 -110 -84 -110 -124 0 -37 109 -33 141 5 41 50
128 29 135 -33 6 -49 1 -52 -70 -49 -184 7 -284 -130 -186 -255 53 -67 146
-87 210 -46 29 19 53 24 60 12 22 -36 156 -25 142 12 -7 17 -12 107 -12 199 0
249 -136 371 -310 279z m170 -330 c0 -62 -64 -98 -130 -73 -77 30 -12 131 85
132 37 1 45 -10 45 -59z"/>
<path d="M4925 2644 c-264 -141 -124 -590 158 -505 75 22 157 103 157 154 0
45 -126 34 -155 -13 -81 -129 -213 52 -153 209 30 78 168 78 168 0 0 -20 22
-29 70 -29 78 0 84 15 39 103 -54 103 -176 138 -284 81z"/>
<path d="M6700 2659 c-121 -51 -167 -159 -67 -159 30 0 70 15 90 32 51 47 142
22 133 -37 -5 -36 -20 -44 -87 -46 -136 -5 -209 -66 -209 -174 0 -103 161
-185 249 -127 30 19 54 24 61 12 7 -11 41 -20 77 -20 l64 0 -6 155 c-9 224
-20 273 -72 323 -55 51 -162 70 -233 41z m160 -339 c0 -62 -64 -98 -130 -73
-77 30 -12 131 85 132 37 1 45 -10 45 -59z"/>
<path d="M8305 2651 c-210 -94 -192 -440 27 -512 134 -44 339 54 257 122 -23
19 -42 20 -81 2 -101 -46 -208 -10 -208 71 0 26 25 30 162 22 l162 -10 -9 99
c-17 172 -165 271 -310 206z m140 -116 c66 -50 49 -78 -50 -82 -101 -5 -121
18 -64 76 38 38 70 39 114 6z"/>
<path d="M7439 2655 c0 -3 -2 -120 -5 -260 l-4 -255 78 0 c76 0 77 1 65 63 -7
34 -13 151 -13 260 l0 197 -60 0 c-33 0 -60 -2 -61 -5z"/>
<path d="M7645 2636 c5 -14 44 -132 87 -261 l77 -235 70 1 71 0 77 235 c42
129 81 245 87 259 6 17 -14 25 -68 25 l-77 0 -37 -170 c-47 -211 -60 -212
-106 -5 l-37 165 -77 6 c-58 5 -75 0 -67 -20z"/>
</g>
</svg>
